M48
METRIC
T1C0.400
T2C0.800
%
G90
G05
T1
X84.115Y-66.903
X84.115Y-100.903
X84.115Y-134.903
X84.815Y-78.103
X84.815Y-112.103
X84.815Y-146.103
X86.228Y-62.203
X86.228Y-96.203
X86.228Y-130.203
X86.515Y-66.103
X86.515Y-100.103
X86.515Y-134.103
X87.315Y-65.303
X87.315Y-99.303
X87.315Y-133.303
X87.325Y-74.643
X87.325Y-82.783
X87.325Y-108.643
X87.325Y-116.783
X87.325Y-142.643
X87.325Y-150.783
X88.115Y-64.503
X88.115Y-98.503
X88.115Y-132.503
X88.915Y-66.103
X88.915Y-100.103
X88.915Y-134.103
X89.615Y-78.903
X89.615Y-112.903
X89.615Y-146.903
X89.715Y-65.303
X89.715Y-99.303
X89.715Y-133.303
X90.415Y-79.703
X90.415Y-113.703
X90.415Y-147.703
X90.515Y-64.503
X90.515Y-98.503
X90.515Y-132.503
X91.215Y-80.503
X91.215Y-114.503
X91.215Y-148.503
X91.315Y-63.703
X91.315Y-67.703
X91.315Y-97.703
X91.315Y-101.703
X91.315Y-131.703
X91.315Y-135.703
X92.015Y-77.303
X92.015Y-111.303
X92.015Y-145.303
X92.115Y-68.503
X92.115Y-71.703
X92.115Y-102.503
X92.115Y-105.703
X92.115Y-136.503
X92.115Y-139.703
X92.815Y-83.103
X92.815Y-117.103
X92.815Y-151.103
X92.915Y-69.353
X92.915Y-72.503
X92.915Y-103.353
X92.915Y-106.503
X92.915Y-137.353
X92.915Y-140.503
X93.615Y-82.103
X93.615Y-116.103
X93.615Y-150.103
X94.415Y-76.403
X94.415Y-83.903
X94.415Y-110.403
X94.415Y-117.903
X94.415Y-144.403
X94.415Y-151.903
X96.015Y-77.203
X96.015Y-111.203
X96.015Y-145.203
X96.815Y-76.403
X96.815Y-110.403
X96.815Y-144.403
X97.615Y-62.203
X97.615Y-96.203
X97.615Y-130.203
X100.015Y-77.203
X100.015Y-111.203
X100.015Y-145.203
X100.815Y-62.203
X100.815Y-76.403
X100.815Y-96.203
X100.815Y-110.403
X100.815Y-130.203
X100.815Y-144.403
X102.415Y-77.203
X102.415Y-111.203
X102.415Y-145.203
X103.215Y-76.403
X103.215Y-110.403
X103.215Y-144.403
X106.015Y-81.303
X106.015Y-115.303
X106.015Y-149.303
X107.115Y-67.703
X107.115Y-69.303
X107.115Y-101.703
X107.115Y-103.303
X107.115Y-135.703
X107.115Y-137.303
X107.915Y-68.503
X107.915Y-70.103
X107.915Y-102.503
X107.915Y-104.103
X107.915Y-136.503
X107.915Y-138.103
X118.115Y-66.903
X118.115Y-100.903
X118.115Y-134.903
X118.815Y-78.103
X118.815Y-112.103
X118.815Y-146.103
X120.228Y-62.203
X120.228Y-96.203
X120.228Y-130.203
X120.515Y-66.103
X120.515Y-100.103
X120.515Y-134.103
X121.315Y-65.303
X121.315Y-99.303
X121.315Y-133.303
X121.325Y-74.643
X121.325Y-82.783
X121.325Y-108.643
X121.325Y-116.783
X121.325Y-142.643
X121.325Y-150.783
X122.115Y-64.503
X122.115Y-98.503
X122.115Y-132.503
X122.915Y-66.103
X122.915Y-100.103
X122.915Y-134.103
X123.615Y-78.903
X123.615Y-112.903
X123.615Y-146.903
X123.715Y-65.303
X123.715Y-99.303
X123.715Y-133.303
X124.415Y-79.703
X124.415Y-113.703
X124.415Y-147.703
X124.515Y-64.503
X124.515Y-98.503
X124.515Y-132.503
X125.215Y-80.503
X125.215Y-114.503
X125.215Y-148.503
X125.315Y-63.703
X125.315Y-67.703
X125.315Y-97.703
X125.315Y-101.703
X125.315Y-131.703
X125.315Y-135.703
X126.015Y-77.303
X126.015Y-111.303
X126.015Y-145.303
X126.115Y-68.503
X126.115Y-71.703
X126.115Y-102.503
X126.115Y-105.703
X126.115Y-136.503
X126.115Y-139.703
X126.815Y-83.103
X126.815Y-117.103
X126.815Y-151.103
X126.915Y-69.353
X126.915Y-72.503
X126.915Y-103.353
X126.915Y-106.503
X126.915Y-137.353
X126.915Y-140.503
X127.615Y-82.103
X127.615Y-116.103
X127.615Y-150.103
X128.415Y-76.403
X128.415Y-83.903
X128.415Y-110.403
X128.415Y-117.903
X128.415Y-144.403
X128.415Y-151.903
X130.015Y-77.203
X130.015Y-111.203
X130.015Y-145.203
X130.815Y-76.403
X130.815Y-110.403
X130.815Y-144.403
X131.615Y-62.203
X131.615Y-96.203
X131.615Y-130.203
X134.015Y-77.203
X134.015Y-111.203
X134.015Y-145.203
X134.815Y-62.203
X134.815Y-76.403
X134.815Y-96.203
X134.815Y-110.403
X134.815Y-130.203
X134.815Y-144.403
X136.415Y-77.203
X136.415Y-111.203
X136.415Y-145.203
X137.215Y-76.403
X137.215Y-110.403
X137.215Y-144.403
X140.015Y-81.303
X140.015Y-115.303
X140.015Y-149.303
X141.115Y-67.703
X141.115Y-69.303
X141.115Y-101.703
X141.115Y-103.303
X141.115Y-135.703
X141.115Y-137.303
X141.915Y-68.503
X141.915Y-70.103
X141.915Y-102.503
X141.915Y-104.103
X141.915Y-136.503
X141.915Y-138.103
X152.115Y-66.903
X152.115Y-100.903
X152.115Y-134.903
X152.815Y-78.103
X152.815Y-112.103
X152.815Y-146.103
X154.228Y-62.203
X154.228Y-96.203
X154.228Y-130.203
X154.515Y-66.103
X154.515Y-100.103
X154.515Y-134.103
X155.315Y-65.303
X155.315Y-99.303
X155.315Y-133.303
X155.325Y-74.643
X155.325Y-82.783
X155.325Y-108.643
X155.325Y-116.783
X155.325Y-142.643
X155.325Y-150.783
X156.115Y-64.503
X156.115Y-98.503
X156.115Y-132.503
X156.915Y-66.103
X156.915Y-100.103
X156.915Y-134.103
X157.615Y-78.903
X157.615Y-112.903
X157.615Y-146.903
X157.715Y-65.303
X157.715Y-99.303
X157.715Y-133.303
X158.415Y-79.703
X158.415Y-113.703
X158.415Y-147.703
X158.515Y-64.503
X158.515Y-98.503
X158.515Y-132.503
X159.215Y-80.503
X159.215Y-114.503
X159.215Y-148.503
X159.315Y-63.703
X159.315Y-67.703
X159.315Y-97.703
X159.315Y-101.703
X159.315Y-131.703
X159.315Y-135.703
X160.015Y-77.303
X160.015Y-111.303
X160.015Y-145.303
X160.115Y-68.503
X160.115Y-71.703
X160.115Y-102.503
X160.115Y-105.703
X160.115Y-136.503
X160.115Y-139.703
X160.815Y-83.103
X160.815Y-117.103
X160.815Y-151.103
X160.915Y-69.353
X160.915Y-72.503
X160.915Y-103.353
X160.915Y-106.503
X160.915Y-137.353
X160.915Y-140.503
X161.615Y-82.103
X161.615Y-116.103
X161.615Y-150.103
X162.415Y-76.403
X162.415Y-83.903
X162.415Y-110.403
X162.415Y-117.903
X162.415Y-144.403
X162.415Y-151.903
X164.015Y-77.203
X164.015Y-111.203
X164.015Y-145.203
X164.815Y-76.403
X164.815Y-110.403
X164.815Y-144.403
X165.615Y-62.203
X165.615Y-96.203
X165.615Y-130.203
X168.015Y-77.203
X168.015Y-111.203
X168.015Y-145.203
X168.815Y-62.203
X168.815Y-76.403
X168.815Y-96.203
X168.815Y-110.403
X168.815Y-130.203
X168.815Y-144.403
X170.415Y-77.203
X170.415Y-111.203
X170.415Y-145.203
X171.215Y-76.403
X171.215Y-110.403
X171.215Y-144.403
X174.015Y-81.303
X174.015Y-115.303
X174.015Y-149.303
X175.115Y-67.703
X175.115Y-69.303
X175.115Y-101.703
X175.115Y-103.303
X175.115Y-135.703
X175.115Y-137.303
X175.915Y-68.503
X175.915Y-70.103
X175.915Y-102.503
X175.915Y-104.103
X175.915Y-136.503
X175.915Y-138.103
T2
X121.015Y-121.303
X123.015Y-121.303
X125.015Y-121.303
X127.015Y-121.303
X129.015Y-121.303
X131.015Y-121.303
X133.015Y-121.303
X135.015Y-121.303
X137.015Y-121.303
X139.015Y-121.303
X110.015Y-132.303
X110.015Y-134.303
X110.015Y-136.303
X110.015Y-138.303
X110.015Y-140.303
X110.015Y-142.303
X110.015Y-144.303
X110.015Y-146.303
X110.015Y-148.303
X110.015Y-150.303
X82.015Y-132.303
X82.015Y-134.303
X82.015Y-136.303
X82.015Y-138.303
X82.015Y-140.303
X82.015Y-142.303
X82.015Y-144.303
X82.015Y-146.303
X82.015Y-148.303
X82.015Y-150.303
X155.015Y-59.303
X157.015Y-59.303
X159.015Y-59.303
X161.015Y-59.303
X163.015Y-59.303
X165.015Y-59.303
X167.015Y-59.303
X169.015Y-59.303
X171.015Y-59.303
X173.015Y-59.303
X87.015Y-87.303
X89.015Y-87.303
X91.015Y-87.303
X93.015Y-87.303
X95.015Y-87.303
X97.015Y-87.303
X99.015Y-87.303
X101.015Y-87.303
X103.015Y-87.303
X105.015Y-87.303
X87.015Y-155.303
X89.015Y-155.303
X91.015Y-155.303
X93.015Y-155.303
X95.015Y-155.303
X97.015Y-155.303
X99.015Y-155.303
X101.015Y-155.303
X103.015Y-155.303
X105.015Y-155.303
X116.015Y-132.303
X116.015Y-134.303
X116.015Y-136.303
X116.015Y-138.303
X116.015Y-140.303
X116.015Y-142.303
X116.015Y-144.303
X116.015Y-146.303
X116.015Y-148.303
X116.015Y-150.303
X110.015Y-98.303
X110.015Y-100.303
X110.015Y-102.303
X110.015Y-104.303
X110.015Y-106.303
X110.015Y-108.303
X110.015Y-110.303
X110.015Y-112.303
X110.015Y-114.303
X110.015Y-116.303
X150.015Y-132.303
X150.015Y-134.303
X150.015Y-136.303
X150.015Y-138.303
X150.015Y-140.303
X150.015Y-142.303
X150.015Y-144.303
X150.015Y-146.303
X150.015Y-148.303
X150.015Y-150.303
X178.015Y-98.303
X178.015Y-100.303
X178.015Y-102.303
X178.015Y-104.303
X178.015Y-106.303
X178.015Y-108.303
X178.015Y-110.303
X178.015Y-112.303
X178.015Y-114.303
X178.015Y-116.303
X150.015Y-98.303
X150.015Y-100.303
X150.015Y-102.303
X150.015Y-104.303
X150.015Y-106.303
X150.015Y-108.303
X150.015Y-110.303
X150.015Y-112.303
X150.015Y-114.303
X150.015Y-116.303
X82.015Y-64.303
X82.015Y-66.303
X82.015Y-68.303
X82.015Y-70.303
X82.015Y-72.303
X82.015Y-74.303
X82.015Y-76.303
X82.015Y-78.303
X82.015Y-80.303
X82.015Y-82.303
X87.015Y-127.303
X89.015Y-127.303
X91.015Y-127.303
X93.015Y-127.303
X95.015Y-127.303
X97.015Y-127.303
X99.015Y-127.303
X101.015Y-127.303
X103.015Y-127.303
X105.015Y-127.303
X155.015Y-121.303
X157.015Y-121.303
X159.015Y-121.303
X161.015Y-121.303
X163.015Y-121.303
X165.015Y-121.303
X167.015Y-121.303
X169.015Y-121.303
X171.015Y-121.303
X173.015Y-121.303
X150.015Y-64.303
X150.015Y-66.303
X150.015Y-68.303
X150.015Y-70.303
X150.015Y-72.303
X150.015Y-74.303
X150.015Y-76.303
X150.015Y-78.303
X150.015Y-80.303
X150.015Y-82.303
X116.015Y-98.303
X116.015Y-100.303
X116.015Y-102.303
X116.015Y-104.303
X116.015Y-106.303
X116.015Y-108.303
X116.015Y-110.303
X116.015Y-112.303
X116.015Y-114.303
X116.015Y-116.303
X155.015Y-127.303
X157.015Y-127.303
X159.015Y-127.303
X161.015Y-127.303
X163.015Y-127.303
X165.015Y-127.303
X167.015Y-127.303
X169.015Y-127.303
X171.015Y-127.303
X173.015Y-127.303
X144.015Y-132.303
X144.015Y-134.303
X144.015Y-136.303
X144.015Y-138.303
X144.015Y-140.303
X144.015Y-142.303
X144.015Y-144.303
X144.015Y-146.303
X144.015Y-148.303
X144.015Y-150.303
X144.015Y-98.303
X144.015Y-100.303
X144.015Y-102.303
X144.015Y-104.303
X144.015Y-106.303
X144.015Y-108.303
X144.015Y-110.303
X144.015Y-112.303
X144.015Y-114.303
X144.015Y-116.303
X155.015Y-155.303
X157.015Y-155.303
X159.015Y-155.303
X161.015Y-155.303
X163.015Y-155.303
X165.015Y-155.303
X167.015Y-155.303
X169.015Y-155.303
X171.015Y-155.303
X173.015Y-155.303
X110.015Y-64.303
X110.015Y-66.303
X110.015Y-68.303
X110.015Y-70.303
X110.015Y-72.303
X110.015Y-74.303
X110.015Y-76.303
X110.015Y-78.303
X110.015Y-80.303
X110.015Y-82.303
X155.015Y-93.303
X157.015Y-93.303
X159.015Y-93.303
X161.015Y-93.303
X163.015Y-93.303
X165.015Y-93.303
X167.015Y-93.303
X169.015Y-93.303
X171.015Y-93.303
X173.015Y-93.303
X155.015Y-87.303
X157.015Y-87.303
X159.015Y-87.303
X161.015Y-87.303
X163.015Y-87.303
X165.015Y-87.303
X167.015Y-87.303
X169.015Y-87.303
X171.015Y-87.303
X173.015Y-87.303
X144.015Y-64.303
X144.015Y-66.303
X144.015Y-68.303
X144.015Y-70.303
X144.015Y-72.303
X144.015Y-74.303
X144.015Y-76.303
X144.015Y-78.303
X144.015Y-80.303
X144.015Y-82.303
X178.015Y-64.303
X178.015Y-66.303
X178.015Y-68.303
X178.015Y-70.303
X178.015Y-72.303
X178.015Y-74.303
X178.015Y-76.303
X178.015Y-78.303
X178.015Y-80.303
X178.015Y-82.303
X121.015Y-59.303
X123.015Y-59.303
X125.015Y-59.303
X127.015Y-59.303
X129.015Y-59.303
X131.015Y-59.303
X133.015Y-59.303
X135.015Y-59.303
X137.015Y-59.303
X139.015Y-59.303
X121.015Y-127.303
X123.015Y-127.303
X125.015Y-127.303
X127.015Y-127.303
X129.015Y-127.303
X131.015Y-127.303
X133.015Y-127.303
X135.015Y-127.303
X137.015Y-127.303
X139.015Y-127.303
X87.015Y-121.303
X89.015Y-121.303
X91.015Y-121.303
X93.015Y-121.303
X95.015Y-121.303
X97.015Y-121.303
X99.015Y-121.303
X101.015Y-121.303
X103.015Y-121.303
X105.015Y-121.303
X121.015Y-155.303
X123.015Y-155.303
X125.015Y-155.303
X127.015Y-155.303
X129.015Y-155.303
X131.015Y-155.303
X133.015Y-155.303
X135.015Y-155.303
X137.015Y-155.303
X139.015Y-155.303
X116.015Y-64.303
X116.015Y-66.303
X116.015Y-68.303
X116.015Y-70.303
X116.015Y-72.303
X116.015Y-74.303
X116.015Y-76.303
X116.015Y-78.303
X116.015Y-80.303
X116.015Y-82.303
X121.015Y-93.303
X123.015Y-93.303
X125.015Y-93.303
X127.015Y-93.303
X129.015Y-93.303
X131.015Y-93.303
X133.015Y-93.303
X135.015Y-93.303
X137.015Y-93.303
X139.015Y-93.303
X87.015Y-93.303
X89.015Y-93.303
X91.015Y-93.303
X93.015Y-93.303
X95.015Y-93.303
X97.015Y-93.303
X99.015Y-93.303
X101.015Y-93.303
X103.015Y-93.303
X105.015Y-93.303
X87.015Y-59.303
X89.015Y-59.303
X91.015Y-59.303
X93.015Y-59.303
X95.015Y-59.303
X97.015Y-59.303
X99.015Y-59.303
X101.015Y-59.303
X103.015Y-59.303
X105.015Y-59.303
X121.015Y-87.303
X123.015Y-87.303
X125.015Y-87.303
X127.015Y-87.303
X129.015Y-87.303
X131.015Y-87.303
X133.015Y-87.303
X135.015Y-87.303
X137.015Y-87.303
X139.015Y-87.303
X82.015Y-98.303
X82.015Y-100.303
X82.015Y-102.303
X82.015Y-104.303
X82.015Y-106.303
X82.015Y-108.303
X82.015Y-110.303
X82.015Y-112.303
X82.015Y-114.303
X82.015Y-116.303
X178.015Y-132.303
X178.015Y-134.303
X178.015Y-136.303
X178.015Y-138.303
X178.015Y-140.303
X178.015Y-142.303
X178.015Y-144.303
X178.015Y-146.303
X178.015Y-148.303
X178.015Y-150.303
T0
M30
