G04 #@! TF.GenerationSoftware,KiCad,Pcbnew,(5.1.5)-3*
G04 #@! TF.CreationDate,2021-06-29T22:10:07+07:00*
G04 #@! TF.ProjectId,noname,6e6f6e61-6d65-42e6-9b69-6361645f7063,rev?*
G04 #@! TF.SameCoordinates,Original*
G04 #@! TF.FileFunction,Profile,NP*
%FSLAX46Y46*%
G04 Gerber Fmt 4.6, Leading zero omitted, Abs format (unit mm)*
G04 Created by KiCad (PCBNEW (5.1.5)-3) date 2021-06-29 22:10:07*
%MOMM*%
%LPD*%
G04 APERTURE LIST*
%ADD10C,0.050000*%
G04 APERTURE END LIST*
D10*
X148010000Y-57302400D02*
X180014000Y-57302400D01*
X114010000Y-57302400D02*
X146014000Y-57302400D01*
X80010000Y-57302400D02*
X112014000Y-57302400D01*
X80010000Y-125302400D02*
X80010000Y-157306400D01*
X80010000Y-91302400D02*
X80010000Y-123306400D01*
X80010000Y-57302400D02*
X80010000Y-89306400D01*
X180014000Y-125302400D02*
X180014000Y-157306400D01*
X180014000Y-91302400D02*
X180014000Y-123306400D01*
X180014000Y-57302400D02*
X180014000Y-89306400D01*
X148010000Y-157306400D02*
X180014000Y-157306400D01*
X114010000Y-157306400D02*
X146014000Y-157306400D01*
X80010000Y-157306400D02*
X112014000Y-157306400D01*
X161982562Y-123306659D02*
G75*
G02X162033339Y-125301959I30458J-997521D01*
G01*
X162030800Y-125302400D02*
X148010000Y-125302400D01*
X128030800Y-125302400D02*
X114010000Y-125302400D01*
X94030800Y-125302400D02*
X80010000Y-125302400D01*
X162030800Y-91302400D02*
X148010000Y-91302400D01*
X128030800Y-91302400D02*
X114010000Y-91302400D01*
X94030800Y-91302400D02*
X80010000Y-91302400D01*
X148010000Y-123306400D02*
X161980000Y-123306400D01*
X114010000Y-123306400D02*
X127980000Y-123306400D01*
X80010000Y-123306400D02*
X93980000Y-123306400D01*
X148010000Y-89306400D02*
X161980000Y-89306400D01*
X114010000Y-89306400D02*
X127980000Y-89306400D01*
X165993200Y-125302400D02*
X180014000Y-125302400D01*
X131993200Y-125302400D02*
X146014000Y-125302400D01*
X97993200Y-125302400D02*
X112014000Y-125302400D01*
X165993200Y-91302400D02*
X180014000Y-91302400D01*
X131993200Y-91302400D02*
X146014000Y-91302400D01*
X97993200Y-91302400D02*
X112014000Y-91302400D01*
X165993186Y-125303226D02*
G75*
G02X166043999Y-123306401I17794J998606D01*
G01*
X131993186Y-125303226D02*
G75*
G02X132043999Y-123306401I17794J998606D01*
G01*
X97993186Y-125303226D02*
G75*
G02X98043999Y-123306401I17794J998606D01*
G01*
X165993186Y-91303226D02*
G75*
G02X166043999Y-89306401I17794J998606D01*
G01*
X131993186Y-91303226D02*
G75*
G02X132043999Y-89306401I17794J998606D01*
G01*
X127980022Y-123307099D02*
G75*
G02X128030799Y-125302399I30458J-997521D01*
G01*
X93980022Y-123307099D02*
G75*
G02X94030799Y-125302399I30458J-997521D01*
G01*
X161980022Y-89307099D02*
G75*
G02X162030799Y-91302399I30458J-997521D01*
G01*
X127980022Y-89307099D02*
G75*
G02X128030799Y-91302399I30458J-997521D01*
G01*
X114009999Y-71271945D02*
G75*
G02X112013561Y-71271961I-998219J-33035D01*
G01*
X148010000Y-143336400D02*
X148010000Y-157306400D01*
X114010000Y-143336400D02*
X114010000Y-157306400D01*
X148010000Y-109336400D02*
X148010000Y-123306400D01*
X114010000Y-109336400D02*
X114010000Y-123306400D01*
X148010000Y-75336400D02*
X148010000Y-89306400D01*
X114010000Y-75336400D02*
X114010000Y-89306400D01*
X146014000Y-143336400D02*
X146014000Y-157306400D01*
X112014000Y-143336400D02*
X112014000Y-157306400D01*
X146014000Y-109336400D02*
X146014000Y-123306400D01*
X112014000Y-109336400D02*
X112014000Y-123306400D01*
X146014000Y-75336400D02*
X146014000Y-89306400D01*
X148010000Y-125302400D02*
X148010000Y-139272400D01*
X114010000Y-125302400D02*
X114010000Y-139272400D01*
X148010000Y-91302400D02*
X148010000Y-105272400D01*
X114010000Y-91302400D02*
X114010000Y-105272400D01*
X148010000Y-57302400D02*
X148010000Y-71272400D01*
X114010000Y-57302400D02*
X114010000Y-71272400D01*
X180014000Y-123306400D02*
X166044000Y-123306400D01*
X146014000Y-123306400D02*
X132044000Y-123306400D01*
X112014000Y-123306400D02*
X98044000Y-123306400D01*
X180014000Y-89306400D02*
X166044000Y-89306400D01*
X146014000Y-89306400D02*
X132044000Y-89306400D01*
X146014000Y-125302400D02*
X146014000Y-139272400D01*
X112014000Y-125302400D02*
X112014000Y-139272400D01*
X146014000Y-91302400D02*
X146014000Y-105272400D01*
X112014000Y-91302400D02*
X112014000Y-105272400D01*
X146014000Y-57302400D02*
X146014000Y-71272400D01*
X146016114Y-143338487D02*
G75*
G02X148011659Y-143338059I997766J30467D01*
G01*
X112016114Y-143338487D02*
G75*
G02X114011659Y-143338059I997766J30467D01*
G01*
X146016114Y-109338487D02*
G75*
G02X148011659Y-109338059I997766J30467D01*
G01*
X112016114Y-109338487D02*
G75*
G02X114011659Y-109338059I997766J30467D01*
G01*
X146016114Y-75338487D02*
G75*
G02X148011659Y-75338059I997766J30467D01*
G01*
X148010439Y-139272385D02*
G75*
G02X146014001Y-139272401I-998219J-33035D01*
G01*
X114010439Y-139272385D02*
G75*
G02X112014001Y-139272401I-998219J-33035D01*
G01*
X148010439Y-105272385D02*
G75*
G02X146014001Y-105272401I-998219J-33035D01*
G01*
X114010439Y-105272385D02*
G75*
G02X112014001Y-105272401I-998219J-33035D01*
G01*
X148010439Y-71272385D02*
G75*
G02X146014001Y-71272401I-998219J-33035D01*
G01*
X97993186Y-91303226D02*
G75*
G02X98043999Y-89306401I17794J998606D01*
G01*
X93980022Y-89307099D02*
G75*
G02X94030799Y-91302399I30458J-997521D01*
G01*
X112014441Y-75336388D02*
G75*
G02X114009999Y-75336399I997779J30468D01*
G01*
X112014000Y-75336400D02*
X112014000Y-89306400D01*
X80010000Y-89306400D02*
X93980000Y-89306400D01*
X112014000Y-57302400D02*
X112014000Y-71272400D01*
X112014000Y-89306400D02*
X98044000Y-89306400D01*
M02*
