G04 #@! TF.GenerationSoftware,KiCad,Pcbnew,(5.1.5)-3*
G04 #@! TF.CreationDate,2021-06-29T22:10:07+07:00*
G04 #@! TF.ProjectId,noname,6e6f6e61-6d65-42e6-9b69-6361645f7063,rev?*
G04 #@! TF.SameCoordinates,Original*
G04 #@! TF.FileFunction,Copper,L4,Bot*
G04 #@! TF.FilePolarity,Positive*
%FSLAX46Y46*%
G04 Gerber Fmt 4.6, Leading zero omitted, Abs format (unit mm)*
G04 Created by KiCad (PCBNEW (5.1.5)-3) date 2021-06-29 22:10:07*
%MOMM*%
%LPD*%
G04 APERTURE LIST*
%ADD10R,1.350000X1.350000*%
%ADD11O,1.350000X1.350000*%
%ADD12C,0.800000*%
%ADD13C,0.350000*%
G04 APERTURE END LIST*
D10*
X155015200Y-127302600D03*
D11*
X157015200Y-127302600D03*
X159015200Y-127302600D03*
X161015200Y-127302600D03*
X163015200Y-127302600D03*
X165015200Y-127302600D03*
X167015200Y-127302600D03*
X169015200Y-127302600D03*
X171015200Y-127302600D03*
X173015200Y-127302600D03*
D10*
X121015200Y-127302600D03*
D11*
X123015200Y-127302600D03*
X125015200Y-127302600D03*
X127015200Y-127302600D03*
X129015200Y-127302600D03*
X131015200Y-127302600D03*
X133015200Y-127302600D03*
X135015200Y-127302600D03*
X137015200Y-127302600D03*
X139015200Y-127302600D03*
D10*
X87015200Y-127302600D03*
D11*
X89015200Y-127302600D03*
X91015200Y-127302600D03*
X93015200Y-127302600D03*
X95015200Y-127302600D03*
X97015200Y-127302600D03*
X99015200Y-127302600D03*
X101015200Y-127302600D03*
X103015200Y-127302600D03*
X105015200Y-127302600D03*
D10*
X155015200Y-93302600D03*
D11*
X157015200Y-93302600D03*
X159015200Y-93302600D03*
X161015200Y-93302600D03*
X163015200Y-93302600D03*
X165015200Y-93302600D03*
X167015200Y-93302600D03*
X169015200Y-93302600D03*
X171015200Y-93302600D03*
X173015200Y-93302600D03*
D10*
X121015200Y-93302600D03*
D11*
X123015200Y-93302600D03*
X125015200Y-93302600D03*
X127015200Y-93302600D03*
X129015200Y-93302600D03*
X131015200Y-93302600D03*
X133015200Y-93302600D03*
X135015200Y-93302600D03*
X137015200Y-93302600D03*
X139015200Y-93302600D03*
D10*
X87015200Y-93302600D03*
D11*
X89015200Y-93302600D03*
X91015200Y-93302600D03*
X93015200Y-93302600D03*
X95015200Y-93302600D03*
X97015200Y-93302600D03*
X99015200Y-93302600D03*
X101015200Y-93302600D03*
X103015200Y-93302600D03*
X105015200Y-93302600D03*
D10*
X155015200Y-59302600D03*
D11*
X157015200Y-59302600D03*
X159015200Y-59302600D03*
X161015200Y-59302600D03*
X163015200Y-59302600D03*
X165015200Y-59302600D03*
X167015200Y-59302600D03*
X169015200Y-59302600D03*
X171015200Y-59302600D03*
X173015200Y-59302600D03*
D10*
X121015200Y-59302600D03*
D11*
X123015200Y-59302600D03*
X125015200Y-59302600D03*
X127015200Y-59302600D03*
X129015200Y-59302600D03*
X131015200Y-59302600D03*
X133015200Y-59302600D03*
X135015200Y-59302600D03*
X137015200Y-59302600D03*
X139015200Y-59302600D03*
X155015200Y-155302600D03*
X157015200Y-155302600D03*
X159015200Y-155302600D03*
X161015200Y-155302600D03*
X163015200Y-155302600D03*
X165015200Y-155302600D03*
X167015200Y-155302600D03*
X169015200Y-155302600D03*
X171015200Y-155302600D03*
D10*
X173015200Y-155302600D03*
D11*
X121015200Y-155302600D03*
X123015200Y-155302600D03*
X125015200Y-155302600D03*
X127015200Y-155302600D03*
X129015200Y-155302600D03*
X131015200Y-155302600D03*
X133015200Y-155302600D03*
X135015200Y-155302600D03*
X137015200Y-155302600D03*
D10*
X139015200Y-155302600D03*
D11*
X87015200Y-155302600D03*
X89015200Y-155302600D03*
X91015200Y-155302600D03*
X93015200Y-155302600D03*
X95015200Y-155302600D03*
X97015200Y-155302600D03*
X99015200Y-155302600D03*
X101015200Y-155302600D03*
X103015200Y-155302600D03*
D10*
X105015200Y-155302600D03*
D11*
X155015200Y-121302600D03*
X157015200Y-121302600D03*
X159015200Y-121302600D03*
X161015200Y-121302600D03*
X163015200Y-121302600D03*
X165015200Y-121302600D03*
X167015200Y-121302600D03*
X169015200Y-121302600D03*
X171015200Y-121302600D03*
D10*
X173015200Y-121302600D03*
D11*
X121015200Y-121302600D03*
X123015200Y-121302600D03*
X125015200Y-121302600D03*
X127015200Y-121302600D03*
X129015200Y-121302600D03*
X131015200Y-121302600D03*
X133015200Y-121302600D03*
X135015200Y-121302600D03*
X137015200Y-121302600D03*
D10*
X139015200Y-121302600D03*
D11*
X87015200Y-121302600D03*
X89015200Y-121302600D03*
X91015200Y-121302600D03*
X93015200Y-121302600D03*
X95015200Y-121302600D03*
X97015200Y-121302600D03*
X99015200Y-121302600D03*
X101015200Y-121302600D03*
X103015200Y-121302600D03*
D10*
X105015200Y-121302600D03*
D11*
X155015200Y-87302600D03*
X157015200Y-87302600D03*
X159015200Y-87302600D03*
X161015200Y-87302600D03*
X163015200Y-87302600D03*
X165015200Y-87302600D03*
X167015200Y-87302600D03*
X169015200Y-87302600D03*
X171015200Y-87302600D03*
D10*
X173015200Y-87302600D03*
D11*
X121015200Y-87302600D03*
X123015200Y-87302600D03*
X125015200Y-87302600D03*
X127015200Y-87302600D03*
X129015200Y-87302600D03*
X131015200Y-87302600D03*
X133015200Y-87302600D03*
X135015200Y-87302600D03*
X137015200Y-87302600D03*
D10*
X139015200Y-87302600D03*
X150015200Y-150302600D03*
D11*
X150015200Y-148302600D03*
X150015200Y-146302600D03*
X150015200Y-144302600D03*
X150015200Y-142302600D03*
X150015200Y-140302600D03*
X150015200Y-138302600D03*
X150015200Y-136302600D03*
X150015200Y-134302600D03*
X150015200Y-132302600D03*
D10*
X116015200Y-150302600D03*
D11*
X116015200Y-148302600D03*
X116015200Y-146302600D03*
X116015200Y-144302600D03*
X116015200Y-142302600D03*
X116015200Y-140302600D03*
X116015200Y-138302600D03*
X116015200Y-136302600D03*
X116015200Y-134302600D03*
X116015200Y-132302600D03*
D10*
X82015200Y-150302600D03*
D11*
X82015200Y-148302600D03*
X82015200Y-146302600D03*
X82015200Y-144302600D03*
X82015200Y-142302600D03*
X82015200Y-140302600D03*
X82015200Y-138302600D03*
X82015200Y-136302600D03*
X82015200Y-134302600D03*
X82015200Y-132302600D03*
D10*
X150015200Y-116302600D03*
D11*
X150015200Y-114302600D03*
X150015200Y-112302600D03*
X150015200Y-110302600D03*
X150015200Y-108302600D03*
X150015200Y-106302600D03*
X150015200Y-104302600D03*
X150015200Y-102302600D03*
X150015200Y-100302600D03*
X150015200Y-98302600D03*
D10*
X116015200Y-116302600D03*
D11*
X116015200Y-114302600D03*
X116015200Y-112302600D03*
X116015200Y-110302600D03*
X116015200Y-108302600D03*
X116015200Y-106302600D03*
X116015200Y-104302600D03*
X116015200Y-102302600D03*
X116015200Y-100302600D03*
X116015200Y-98302600D03*
D10*
X82015200Y-116302600D03*
D11*
X82015200Y-114302600D03*
X82015200Y-112302600D03*
X82015200Y-110302600D03*
X82015200Y-108302600D03*
X82015200Y-106302600D03*
X82015200Y-104302600D03*
X82015200Y-102302600D03*
X82015200Y-100302600D03*
X82015200Y-98302600D03*
D10*
X150015200Y-82302600D03*
D11*
X150015200Y-80302600D03*
X150015200Y-78302600D03*
X150015200Y-76302600D03*
X150015200Y-74302600D03*
X150015200Y-72302600D03*
X150015200Y-70302600D03*
X150015200Y-68302600D03*
X150015200Y-66302600D03*
X150015200Y-64302600D03*
D10*
X116015200Y-82302600D03*
D11*
X116015200Y-80302600D03*
X116015200Y-78302600D03*
X116015200Y-76302600D03*
X116015200Y-74302600D03*
X116015200Y-72302600D03*
X116015200Y-70302600D03*
X116015200Y-68302600D03*
X116015200Y-66302600D03*
X116015200Y-64302600D03*
D10*
X178015200Y-132302600D03*
D11*
X178015200Y-134302600D03*
X178015200Y-136302600D03*
X178015200Y-138302600D03*
X178015200Y-140302600D03*
X178015200Y-142302600D03*
X178015200Y-144302600D03*
X178015200Y-146302600D03*
X178015200Y-148302600D03*
X178015200Y-150302600D03*
D10*
X144015200Y-132302600D03*
D11*
X144015200Y-134302600D03*
X144015200Y-136302600D03*
X144015200Y-138302600D03*
X144015200Y-140302600D03*
X144015200Y-142302600D03*
X144015200Y-144302600D03*
X144015200Y-146302600D03*
X144015200Y-148302600D03*
X144015200Y-150302600D03*
D10*
X110015200Y-132302600D03*
D11*
X110015200Y-134302600D03*
X110015200Y-136302600D03*
X110015200Y-138302600D03*
X110015200Y-140302600D03*
X110015200Y-142302600D03*
X110015200Y-144302600D03*
X110015200Y-146302600D03*
X110015200Y-148302600D03*
X110015200Y-150302600D03*
D10*
X178015200Y-98302600D03*
D11*
X178015200Y-100302600D03*
X178015200Y-102302600D03*
X178015200Y-104302600D03*
X178015200Y-106302600D03*
X178015200Y-108302600D03*
X178015200Y-110302600D03*
X178015200Y-112302600D03*
X178015200Y-114302600D03*
X178015200Y-116302600D03*
D10*
X144015200Y-98302600D03*
D11*
X144015200Y-100302600D03*
X144015200Y-102302600D03*
X144015200Y-104302600D03*
X144015200Y-106302600D03*
X144015200Y-108302600D03*
X144015200Y-110302600D03*
X144015200Y-112302600D03*
X144015200Y-114302600D03*
X144015200Y-116302600D03*
D10*
X110015200Y-98302600D03*
D11*
X110015200Y-100302600D03*
X110015200Y-102302600D03*
X110015200Y-104302600D03*
X110015200Y-106302600D03*
X110015200Y-108302600D03*
X110015200Y-110302600D03*
X110015200Y-112302600D03*
X110015200Y-114302600D03*
X110015200Y-116302600D03*
D10*
X178015200Y-64302600D03*
D11*
X178015200Y-66302600D03*
X178015200Y-68302600D03*
X178015200Y-70302600D03*
X178015200Y-72302600D03*
X178015200Y-74302600D03*
X178015200Y-76302600D03*
X178015200Y-78302600D03*
X178015200Y-80302600D03*
X178015200Y-82302600D03*
D10*
X144015200Y-64302600D03*
D11*
X144015200Y-66302600D03*
X144015200Y-68302600D03*
X144015200Y-70302600D03*
X144015200Y-72302600D03*
X144015200Y-74302600D03*
X144015200Y-76302600D03*
X144015200Y-78302600D03*
X144015200Y-80302600D03*
X144015200Y-82302600D03*
X110015200Y-82302600D03*
X110015200Y-80302600D03*
X110015200Y-78302600D03*
X110015200Y-76302600D03*
X110015200Y-74302600D03*
X110015200Y-72302600D03*
X110015200Y-70302600D03*
X110015200Y-68302600D03*
X110015200Y-66302600D03*
D10*
X110015200Y-64302600D03*
D11*
X82015200Y-64302600D03*
X82015200Y-66302600D03*
X82015200Y-68302600D03*
X82015200Y-70302600D03*
X82015200Y-72302600D03*
X82015200Y-74302600D03*
X82015200Y-76302600D03*
X82015200Y-78302600D03*
X82015200Y-80302600D03*
D10*
X82015200Y-82302600D03*
X105015200Y-87302600D03*
D11*
X103015200Y-87302600D03*
X101015200Y-87302600D03*
X99015200Y-87302600D03*
X97015200Y-87302600D03*
X95015200Y-87302600D03*
X93015200Y-87302600D03*
X91015200Y-87302600D03*
X89015200Y-87302600D03*
X87015200Y-87302600D03*
X105015200Y-59302600D03*
X103015200Y-59302600D03*
X101015200Y-59302600D03*
X99015200Y-59302600D03*
X97015200Y-59302600D03*
X95015200Y-59302600D03*
X93015200Y-59302600D03*
X91015200Y-59302600D03*
X89015200Y-59302600D03*
D10*
X87015200Y-59302600D03*
D12*
X84115200Y-66902600D03*
X87325200Y-74642600D03*
X94415200Y-83902600D03*
X106015200Y-81302600D03*
X107115200Y-69302600D03*
X92915200Y-69352610D03*
X100815200Y-76402600D03*
X121325200Y-74642600D03*
X155325200Y-74642600D03*
X87325200Y-108642600D03*
X121325200Y-108642600D03*
X155325200Y-108642600D03*
X87325200Y-142642600D03*
X121325200Y-142642600D03*
X155325200Y-142642600D03*
X128415200Y-83902600D03*
X162415200Y-83902600D03*
X94415200Y-117902600D03*
X128415200Y-117902600D03*
X162415200Y-117902600D03*
X94415200Y-151902600D03*
X128415200Y-151902600D03*
X162415200Y-151902600D03*
X141115200Y-69302600D03*
X175115200Y-69302600D03*
X107115200Y-103302600D03*
X141115200Y-103302600D03*
X175115200Y-103302600D03*
X107115200Y-137302600D03*
X141115200Y-137302600D03*
X175115200Y-137302600D03*
X118115200Y-66902600D03*
X152115200Y-66902600D03*
X84115200Y-100902600D03*
X118115200Y-100902600D03*
X152115200Y-100902600D03*
X84115200Y-134902600D03*
X118115200Y-134902600D03*
X152115200Y-134902600D03*
X140015200Y-81302600D03*
X174015200Y-81302600D03*
X106015200Y-115302600D03*
X140015200Y-115302600D03*
X174015200Y-115302600D03*
X106015200Y-149302600D03*
X140015200Y-149302600D03*
X174015200Y-149302600D03*
X126915200Y-69352610D03*
X160915200Y-69352610D03*
X92915200Y-103352610D03*
X126915200Y-103352610D03*
X160915200Y-103352610D03*
X92915200Y-137352610D03*
X126915200Y-137352610D03*
X160915200Y-137352610D03*
X134815200Y-76402600D03*
X168815200Y-76402600D03*
X100815200Y-110402600D03*
X134815200Y-110402600D03*
X168815200Y-110402600D03*
X100815200Y-144402600D03*
X134815200Y-144402600D03*
X168815200Y-144402600D03*
X91315200Y-63702600D03*
X91315200Y-67702600D03*
X92015200Y-77302600D03*
X125315200Y-67702600D03*
X159315200Y-67702600D03*
X91315200Y-101702600D03*
X125315200Y-101702600D03*
X159315200Y-101702600D03*
X91315200Y-135702600D03*
X125315200Y-135702600D03*
X159315200Y-135702600D03*
X126015200Y-77302600D03*
X160015200Y-77302600D03*
X92015200Y-111302600D03*
X126015200Y-111302600D03*
X160015200Y-111302600D03*
X92015200Y-145302600D03*
X126015200Y-145302600D03*
X160015200Y-145302600D03*
X125315200Y-63702600D03*
X159315200Y-63702600D03*
X91315200Y-97702600D03*
X125315200Y-97702600D03*
X159315200Y-97702600D03*
X91315200Y-131702600D03*
X125315200Y-131702600D03*
X159315200Y-131702600D03*
X102415200Y-77202600D03*
X136415200Y-77202600D03*
X170415200Y-77202600D03*
X102415200Y-111202600D03*
X136415200Y-111202600D03*
X170415200Y-111202600D03*
X102415200Y-145202600D03*
X136415200Y-145202600D03*
X170415200Y-145202600D03*
X103215200Y-76402600D03*
X137215200Y-76402600D03*
X171215200Y-76402600D03*
X103215200Y-110402600D03*
X137215200Y-110402600D03*
X171215200Y-110402600D03*
X103215200Y-144402600D03*
X137215200Y-144402600D03*
X171215200Y-144402600D03*
X96815200Y-76402600D03*
X130815200Y-76402600D03*
X164815200Y-76402600D03*
X96815200Y-110402600D03*
X130815200Y-110402600D03*
X164815200Y-110402600D03*
X96815200Y-144402600D03*
X130815200Y-144402600D03*
X164815200Y-144402600D03*
X87325200Y-82782600D03*
X92115200Y-68502600D03*
X100815200Y-62202600D03*
X100015200Y-77202600D03*
X134015200Y-77202600D03*
X168015200Y-77202600D03*
X100015200Y-111202600D03*
X134015200Y-111202600D03*
X168015200Y-111202600D03*
X100015200Y-145202600D03*
X134015200Y-145202600D03*
X168015200Y-145202600D03*
X121325200Y-82782600D03*
X155325200Y-82782600D03*
X87325200Y-116782600D03*
X121325200Y-116782600D03*
X155325200Y-116782600D03*
X87325200Y-150782600D03*
X121325200Y-150782600D03*
X155325200Y-150782600D03*
X126115200Y-68502600D03*
X160115200Y-68502600D03*
X92115200Y-102502600D03*
X126115200Y-102502600D03*
X160115200Y-102502600D03*
X92115200Y-136502600D03*
X126115200Y-136502600D03*
X160115200Y-136502600D03*
X134815200Y-62202600D03*
X168815200Y-62202600D03*
X100815200Y-96202600D03*
X134815200Y-96202600D03*
X168815200Y-96202600D03*
X100815200Y-130202600D03*
X134815200Y-130202600D03*
X168815200Y-130202600D03*
X94415200Y-76402600D03*
X128415200Y-76402600D03*
X162415200Y-76402600D03*
X94415200Y-110402600D03*
X128415200Y-110402600D03*
X162415200Y-110402600D03*
X94415200Y-144402600D03*
X128415200Y-144402600D03*
X162415200Y-144402600D03*
X96015200Y-77202600D03*
X130015200Y-77202600D03*
X164015200Y-77202600D03*
X96015200Y-111202600D03*
X130015200Y-111202600D03*
X164015200Y-111202600D03*
X96015200Y-145202600D03*
X130015200Y-145202600D03*
X164015200Y-145202600D03*
X97615200Y-62202600D03*
X131615200Y-62202600D03*
X165615200Y-62202600D03*
X97615200Y-96202600D03*
X131615200Y-96202600D03*
X165615200Y-96202600D03*
X97615200Y-130202600D03*
X131615200Y-130202600D03*
X165615200Y-130202600D03*
X107115200Y-67702600D03*
X141115200Y-67702600D03*
X175115200Y-67702600D03*
X107115200Y-101702600D03*
X141115200Y-101702600D03*
X175115200Y-101702600D03*
X107115200Y-135702600D03*
X141115200Y-135702600D03*
X175115200Y-135702600D03*
X107915200Y-70102600D03*
X141915200Y-70102600D03*
X175915200Y-70102600D03*
X107915200Y-104102600D03*
X141915200Y-104102600D03*
X175915200Y-104102600D03*
X107915200Y-138102600D03*
X141915200Y-138102600D03*
X175915200Y-138102600D03*
X107915200Y-68502600D03*
X141915200Y-68502600D03*
X175915200Y-68502600D03*
X107915200Y-102502600D03*
X141915200Y-102502600D03*
X175915200Y-102502600D03*
X107915200Y-136502600D03*
X141915200Y-136502600D03*
X175915200Y-136502600D03*
X84815200Y-78102600D03*
X118815200Y-78102600D03*
X152815200Y-78102600D03*
X84815200Y-112102600D03*
X118815200Y-112102600D03*
X152815200Y-112102600D03*
X84815200Y-146102600D03*
X118815200Y-146102600D03*
X152815200Y-146102600D03*
X86515200Y-66102600D03*
X88915200Y-66102600D03*
X89615200Y-78902600D03*
X120515200Y-66102600D03*
X154515200Y-66102600D03*
X86515200Y-100102600D03*
X120515200Y-100102600D03*
X154515200Y-100102600D03*
X86515200Y-134102600D03*
X120515200Y-134102600D03*
X154515200Y-134102600D03*
X122915200Y-66102600D03*
X156915200Y-66102600D03*
X88915200Y-100102600D03*
X122915200Y-100102600D03*
X156915200Y-100102600D03*
X88915200Y-134102600D03*
X122915200Y-134102600D03*
X156915200Y-134102600D03*
X123615200Y-78902600D03*
X157615200Y-78902600D03*
X89615200Y-112902600D03*
X123615200Y-112902600D03*
X157615200Y-112902600D03*
X89615200Y-146902600D03*
X123615200Y-146902600D03*
X157615200Y-146902600D03*
X87315200Y-65302600D03*
X89715200Y-65302600D03*
X90415200Y-79702600D03*
X123715200Y-65302600D03*
X157715200Y-65302600D03*
X89715200Y-99302600D03*
X123715200Y-99302600D03*
X157715200Y-99302600D03*
X89715200Y-133302600D03*
X123715200Y-133302600D03*
X157715200Y-133302600D03*
X124415200Y-79702600D03*
X158415200Y-79702600D03*
X90415200Y-113702600D03*
X124415200Y-113702600D03*
X158415200Y-113702600D03*
X90415200Y-147702600D03*
X124415200Y-147702600D03*
X158415200Y-147702600D03*
X121315200Y-65302600D03*
X155315200Y-65302600D03*
X87315200Y-99302600D03*
X121315200Y-99302600D03*
X155315200Y-99302600D03*
X87315200Y-133302600D03*
X121315200Y-133302600D03*
X155315200Y-133302600D03*
X88115200Y-64502600D03*
X90515200Y-64502600D03*
X91215200Y-80502600D03*
X122115200Y-64502600D03*
X156115200Y-64502600D03*
X88115200Y-98502600D03*
X122115200Y-98502600D03*
X156115200Y-98502600D03*
X88115200Y-132502600D03*
X122115200Y-132502600D03*
X156115200Y-132502600D03*
X125215200Y-80502600D03*
X159215200Y-80502600D03*
X91215200Y-114502600D03*
X125215200Y-114502600D03*
X159215200Y-114502600D03*
X91215200Y-148502600D03*
X125215200Y-148502600D03*
X159215200Y-148502600D03*
X124515200Y-64502600D03*
X158515200Y-64502600D03*
X90515200Y-98502600D03*
X124515200Y-98502600D03*
X158515200Y-98502600D03*
X90515200Y-132502600D03*
X124515200Y-132502600D03*
X158515200Y-132502600D03*
X93615200Y-82102600D03*
X92915200Y-72502600D03*
X127615200Y-82102600D03*
X161615200Y-82102600D03*
X93615200Y-116102600D03*
X127615200Y-116102600D03*
X161615200Y-116102600D03*
X93615200Y-150102600D03*
X127615200Y-150102600D03*
X161615200Y-150102600D03*
X126915200Y-72502600D03*
X160915200Y-72502600D03*
X92915200Y-106502600D03*
X126915200Y-106502600D03*
X160915200Y-106502600D03*
X92915200Y-140502600D03*
X126915200Y-140502600D03*
X160915200Y-140502600D03*
X92115200Y-71702600D03*
X92815200Y-83102600D03*
X126815200Y-83102600D03*
X160815200Y-83102600D03*
X92815200Y-117102600D03*
X126815200Y-117102600D03*
X160815200Y-117102600D03*
X92815200Y-151102600D03*
X126815200Y-151102600D03*
X160815200Y-151102600D03*
X126115200Y-71702600D03*
X160115200Y-71702600D03*
X92115200Y-105702600D03*
X126115200Y-105702600D03*
X160115200Y-105702600D03*
X92115200Y-139702600D03*
X126115200Y-139702600D03*
X160115200Y-139702600D03*
X86227700Y-62202600D03*
X120227700Y-62202600D03*
X154227700Y-62202600D03*
X86227700Y-96202600D03*
X120227700Y-96202600D03*
X154227700Y-96202600D03*
X86227700Y-130202600D03*
X120227700Y-130202600D03*
X154227700Y-130202600D03*
D13*
X91315200Y-75816604D02*
X91315200Y-67702600D01*
X91315200Y-75816604D02*
X92015200Y-76516604D01*
X91315200Y-63702600D02*
X91315200Y-67702600D01*
X92015200Y-77302600D02*
X92015200Y-76516604D01*
X92015200Y-77302600D02*
X92015200Y-82992600D01*
X89015200Y-85992600D02*
X89015200Y-87302600D01*
X92015200Y-82992600D02*
X89015200Y-85992600D01*
X123015200Y-85992600D02*
X123015200Y-87302600D01*
X157015200Y-85992600D02*
X157015200Y-87302600D01*
X89015200Y-119992600D02*
X89015200Y-121302600D01*
X123015200Y-119992600D02*
X123015200Y-121302600D01*
X157015200Y-119992600D02*
X157015200Y-121302600D01*
X89015200Y-153992600D02*
X89015200Y-155302600D01*
X123015200Y-153992600D02*
X123015200Y-155302600D01*
X157015200Y-153992600D02*
X157015200Y-155302600D01*
X125315200Y-75816604D02*
X125315200Y-67702600D01*
X159315200Y-75816604D02*
X159315200Y-67702600D01*
X91315200Y-109816604D02*
X91315200Y-101702600D01*
X125315200Y-109816604D02*
X125315200Y-101702600D01*
X159315200Y-109816604D02*
X159315200Y-101702600D01*
X91315200Y-143816604D02*
X91315200Y-135702600D01*
X125315200Y-143816604D02*
X125315200Y-135702600D01*
X159315200Y-143816604D02*
X159315200Y-135702600D01*
X125315200Y-63702600D02*
X125315200Y-67702600D01*
X159315200Y-63702600D02*
X159315200Y-67702600D01*
X91315200Y-97702600D02*
X91315200Y-101702600D01*
X125315200Y-97702600D02*
X125315200Y-101702600D01*
X159315200Y-97702600D02*
X159315200Y-101702600D01*
X91315200Y-131702600D02*
X91315200Y-135702600D01*
X125315200Y-131702600D02*
X125315200Y-135702600D01*
X159315200Y-131702600D02*
X159315200Y-135702600D01*
X125315200Y-75816604D02*
X126015200Y-76516604D01*
X159315200Y-75816604D02*
X160015200Y-76516604D01*
X91315200Y-109816604D02*
X92015200Y-110516604D01*
X125315200Y-109816604D02*
X126015200Y-110516604D01*
X159315200Y-109816604D02*
X160015200Y-110516604D01*
X91315200Y-143816604D02*
X92015200Y-144516604D01*
X125315200Y-143816604D02*
X126015200Y-144516604D01*
X159315200Y-143816604D02*
X160015200Y-144516604D01*
X126015200Y-77302600D02*
X126015200Y-76516604D01*
X160015200Y-77302600D02*
X160015200Y-76516604D01*
X92015200Y-111302600D02*
X92015200Y-110516604D01*
X126015200Y-111302600D02*
X126015200Y-110516604D01*
X160015200Y-111302600D02*
X160015200Y-110516604D01*
X92015200Y-145302600D02*
X92015200Y-144516604D01*
X126015200Y-145302600D02*
X126015200Y-144516604D01*
X160015200Y-145302600D02*
X160015200Y-144516604D01*
X126015200Y-77302600D02*
X126015200Y-82992600D01*
X160015200Y-77302600D02*
X160015200Y-82992600D01*
X92015200Y-111302600D02*
X92015200Y-116992600D01*
X126015200Y-111302600D02*
X126015200Y-116992600D01*
X160015200Y-111302600D02*
X160015200Y-116992600D01*
X92015200Y-145302600D02*
X92015200Y-150992600D01*
X126015200Y-145302600D02*
X126015200Y-150992600D01*
X160015200Y-145302600D02*
X160015200Y-150992600D01*
X126015200Y-82992600D02*
X123015200Y-85992600D01*
X160015200Y-82992600D02*
X157015200Y-85992600D01*
X92015200Y-116992600D02*
X89015200Y-119992600D01*
X126015200Y-116992600D02*
X123015200Y-119992600D01*
X160015200Y-116992600D02*
X157015200Y-119992600D01*
X92015200Y-150992600D02*
X89015200Y-153992600D01*
X126015200Y-150992600D02*
X123015200Y-153992600D01*
X160015200Y-150992600D02*
X157015200Y-153992600D01*
X102415200Y-77202600D02*
X102415200Y-84742600D01*
X101015200Y-86142600D02*
X101015200Y-87302600D01*
X102415200Y-84742600D02*
X101015200Y-86142600D01*
X135015200Y-86142600D02*
X135015200Y-87302600D01*
X169015200Y-86142600D02*
X169015200Y-87302600D01*
X101015200Y-120142600D02*
X101015200Y-121302600D01*
X135015200Y-120142600D02*
X135015200Y-121302600D01*
X169015200Y-120142600D02*
X169015200Y-121302600D01*
X101015200Y-154142600D02*
X101015200Y-155302600D01*
X135015200Y-154142600D02*
X135015200Y-155302600D01*
X169015200Y-154142600D02*
X169015200Y-155302600D01*
X136415200Y-84742600D02*
X135015200Y-86142600D01*
X170415200Y-84742600D02*
X169015200Y-86142600D01*
X102415200Y-118742600D02*
X101015200Y-120142600D01*
X136415200Y-118742600D02*
X135015200Y-120142600D01*
X170415200Y-118742600D02*
X169015200Y-120142600D01*
X102415200Y-152742600D02*
X101015200Y-154142600D01*
X136415200Y-152742600D02*
X135015200Y-154142600D01*
X170415200Y-152742600D02*
X169015200Y-154142600D01*
X136415200Y-77202600D02*
X136415200Y-84742600D01*
X170415200Y-77202600D02*
X170415200Y-84742600D01*
X102415200Y-111202600D02*
X102415200Y-118742600D01*
X136415200Y-111202600D02*
X136415200Y-118742600D01*
X170415200Y-111202600D02*
X170415200Y-118742600D01*
X102415200Y-145202600D02*
X102415200Y-152742600D01*
X136415200Y-145202600D02*
X136415200Y-152742600D01*
X170415200Y-145202600D02*
X170415200Y-152742600D01*
X103215200Y-84962600D02*
X103015200Y-85162600D01*
X103215200Y-76402600D02*
X103215200Y-84962600D01*
X103015200Y-85162600D02*
X103015200Y-87302600D01*
X137015200Y-85162600D02*
X137015200Y-87302600D01*
X171015200Y-85162600D02*
X171015200Y-87302600D01*
X103015200Y-119162600D02*
X103015200Y-121302600D01*
X137015200Y-119162600D02*
X137015200Y-121302600D01*
X171015200Y-119162600D02*
X171015200Y-121302600D01*
X103015200Y-153162600D02*
X103015200Y-155302600D01*
X137015200Y-153162600D02*
X137015200Y-155302600D01*
X171015200Y-153162600D02*
X171015200Y-155302600D01*
X137215200Y-76402600D02*
X137215200Y-84962600D01*
X171215200Y-76402600D02*
X171215200Y-84962600D01*
X103215200Y-110402600D02*
X103215200Y-118962600D01*
X137215200Y-110402600D02*
X137215200Y-118962600D01*
X171215200Y-110402600D02*
X171215200Y-118962600D01*
X103215200Y-144402600D02*
X103215200Y-152962600D01*
X137215200Y-144402600D02*
X137215200Y-152962600D01*
X171215200Y-144402600D02*
X171215200Y-152962600D01*
X137215200Y-84962600D02*
X137015200Y-85162600D01*
X171215200Y-84962600D02*
X171015200Y-85162600D01*
X103215200Y-118962600D02*
X103015200Y-119162600D01*
X137215200Y-118962600D02*
X137015200Y-119162600D01*
X171215200Y-118962600D02*
X171015200Y-119162600D01*
X103215200Y-152962600D02*
X103015200Y-153162600D01*
X137215200Y-152962600D02*
X137015200Y-153162600D01*
X171215200Y-152962600D02*
X171015200Y-153162600D01*
X97015200Y-84422600D02*
X97015200Y-87302600D01*
X96815200Y-84222600D02*
X97015200Y-84422600D01*
X96815200Y-76402600D02*
X96815200Y-84222600D01*
X131015200Y-84422600D02*
X131015200Y-87302600D01*
X165015200Y-84422600D02*
X165015200Y-87302600D01*
X97015200Y-118422600D02*
X97015200Y-121302600D01*
X131015200Y-118422600D02*
X131015200Y-121302600D01*
X165015200Y-118422600D02*
X165015200Y-121302600D01*
X97015200Y-152422600D02*
X97015200Y-155302600D01*
X131015200Y-152422600D02*
X131015200Y-155302600D01*
X165015200Y-152422600D02*
X165015200Y-155302600D01*
X130815200Y-84222600D02*
X131015200Y-84422600D01*
X164815200Y-84222600D02*
X165015200Y-84422600D01*
X96815200Y-118222600D02*
X97015200Y-118422600D01*
X130815200Y-118222600D02*
X131015200Y-118422600D01*
X164815200Y-118222600D02*
X165015200Y-118422600D01*
X96815200Y-152222600D02*
X97015200Y-152422600D01*
X130815200Y-152222600D02*
X131015200Y-152422600D01*
X164815200Y-152222600D02*
X165015200Y-152422600D01*
X130815200Y-76402600D02*
X130815200Y-84222600D01*
X164815200Y-76402600D02*
X164815200Y-84222600D01*
X96815200Y-110402600D02*
X96815200Y-118222600D01*
X130815200Y-110402600D02*
X130815200Y-118222600D01*
X164815200Y-110402600D02*
X164815200Y-118222600D01*
X96815200Y-144402600D02*
X96815200Y-152222600D01*
X130815200Y-144402600D02*
X130815200Y-152222600D01*
X164815200Y-144402600D02*
X164815200Y-152222600D01*
X94415200Y-76402600D02*
X94415200Y-82762600D01*
X91015200Y-86162600D02*
X91015200Y-87302600D01*
X94415200Y-82762600D02*
X91015200Y-86162600D01*
X128415200Y-76402600D02*
X128415200Y-82762600D01*
X162415200Y-76402600D02*
X162415200Y-82762600D01*
X94415200Y-110402600D02*
X94415200Y-116762600D01*
X128415200Y-110402600D02*
X128415200Y-116762600D01*
X162415200Y-110402600D02*
X162415200Y-116762600D01*
X94415200Y-144402600D02*
X94415200Y-150762600D01*
X128415200Y-144402600D02*
X128415200Y-150762600D01*
X162415200Y-144402600D02*
X162415200Y-150762600D01*
X125015200Y-86162600D02*
X125015200Y-87302600D01*
X159015200Y-86162600D02*
X159015200Y-87302600D01*
X91015200Y-120162600D02*
X91015200Y-121302600D01*
X125015200Y-120162600D02*
X125015200Y-121302600D01*
X159015200Y-120162600D02*
X159015200Y-121302600D01*
X91015200Y-154162600D02*
X91015200Y-155302600D01*
X125015200Y-154162600D02*
X125015200Y-155302600D01*
X159015200Y-154162600D02*
X159015200Y-155302600D01*
X128415200Y-82762600D02*
X125015200Y-86162600D01*
X162415200Y-82762600D02*
X159015200Y-86162600D01*
X94415200Y-116762600D02*
X91015200Y-120162600D01*
X128415200Y-116762600D02*
X125015200Y-120162600D01*
X162415200Y-116762600D02*
X159015200Y-120162600D01*
X94415200Y-150762600D02*
X91015200Y-154162600D01*
X128415200Y-150762600D02*
X125015200Y-154162600D01*
X162415200Y-150762600D02*
X159015200Y-154162600D01*
X95015200Y-87132600D02*
X95015200Y-87302600D01*
X96015200Y-77202600D02*
X96015200Y-86132600D01*
X96015200Y-86132600D02*
X95015200Y-87132600D01*
X130015200Y-86132600D02*
X129015200Y-87132600D01*
X164015200Y-86132600D02*
X163015200Y-87132600D01*
X96015200Y-120132600D02*
X95015200Y-121132600D01*
X130015200Y-120132600D02*
X129015200Y-121132600D01*
X164015200Y-120132600D02*
X163015200Y-121132600D01*
X96015200Y-154132600D02*
X95015200Y-155132600D01*
X130015200Y-154132600D02*
X129015200Y-155132600D01*
X164015200Y-154132600D02*
X163015200Y-155132600D01*
X129015200Y-87132600D02*
X129015200Y-87302600D01*
X163015200Y-87132600D02*
X163015200Y-87302600D01*
X95015200Y-121132600D02*
X95015200Y-121302600D01*
X129015200Y-121132600D02*
X129015200Y-121302600D01*
X163015200Y-121132600D02*
X163015200Y-121302600D01*
X95015200Y-155132600D02*
X95015200Y-155302600D01*
X129015200Y-155132600D02*
X129015200Y-155302600D01*
X163015200Y-155132600D02*
X163015200Y-155302600D01*
X130015200Y-77202600D02*
X130015200Y-86132600D01*
X164015200Y-77202600D02*
X164015200Y-86132600D01*
X96015200Y-111202600D02*
X96015200Y-120132600D01*
X130015200Y-111202600D02*
X130015200Y-120132600D01*
X164015200Y-111202600D02*
X164015200Y-120132600D01*
X96015200Y-145202600D02*
X96015200Y-154132600D01*
X130015200Y-145202600D02*
X130015200Y-154132600D01*
X164015200Y-145202600D02*
X164015200Y-154132600D01*
X93015200Y-86542600D02*
X93015200Y-87302600D01*
X96125200Y-63692600D02*
X96125200Y-75812600D01*
X97615200Y-62202600D02*
X96125200Y-63692600D01*
X95215200Y-84342600D02*
X93015200Y-86542600D01*
X96125200Y-75812600D02*
X95215200Y-76722600D01*
X95215200Y-76722600D02*
X95215200Y-84342600D01*
X130125200Y-63692600D02*
X130125200Y-75812600D01*
X164125200Y-63692600D02*
X164125200Y-75812600D01*
X96125200Y-97692600D02*
X96125200Y-109812600D01*
X130125200Y-97692600D02*
X130125200Y-109812600D01*
X164125200Y-97692600D02*
X164125200Y-109812600D01*
X96125200Y-131692600D02*
X96125200Y-143812600D01*
X130125200Y-131692600D02*
X130125200Y-143812600D01*
X164125200Y-131692600D02*
X164125200Y-143812600D01*
X129215200Y-84342600D02*
X127015200Y-86542600D01*
X163215200Y-84342600D02*
X161015200Y-86542600D01*
X95215200Y-118342600D02*
X93015200Y-120542600D01*
X129215200Y-118342600D02*
X127015200Y-120542600D01*
X163215200Y-118342600D02*
X161015200Y-120542600D01*
X95215200Y-152342600D02*
X93015200Y-154542600D01*
X129215200Y-152342600D02*
X127015200Y-154542600D01*
X163215200Y-152342600D02*
X161015200Y-154542600D01*
X129215200Y-76722600D02*
X129215200Y-84342600D01*
X163215200Y-76722600D02*
X163215200Y-84342600D01*
X95215200Y-110722600D02*
X95215200Y-118342600D01*
X129215200Y-110722600D02*
X129215200Y-118342600D01*
X163215200Y-110722600D02*
X163215200Y-118342600D01*
X95215200Y-144722600D02*
X95215200Y-152342600D01*
X129215200Y-144722600D02*
X129215200Y-152342600D01*
X163215200Y-144722600D02*
X163215200Y-152342600D01*
X130125200Y-75812600D02*
X129215200Y-76722600D01*
X164125200Y-75812600D02*
X163215200Y-76722600D01*
X96125200Y-109812600D02*
X95215200Y-110722600D01*
X130125200Y-109812600D02*
X129215200Y-110722600D01*
X164125200Y-109812600D02*
X163215200Y-110722600D01*
X96125200Y-143812600D02*
X95215200Y-144722600D01*
X130125200Y-143812600D02*
X129215200Y-144722600D01*
X164125200Y-143812600D02*
X163215200Y-144722600D01*
X131615200Y-62202600D02*
X130125200Y-63692600D01*
X165615200Y-62202600D02*
X164125200Y-63692600D01*
X97615200Y-96202600D02*
X96125200Y-97692600D01*
X131615200Y-96202600D02*
X130125200Y-97692600D01*
X165615200Y-96202600D02*
X164125200Y-97692600D01*
X97615200Y-130202600D02*
X96125200Y-131692600D01*
X131615200Y-130202600D02*
X130125200Y-131692600D01*
X165615200Y-130202600D02*
X164125200Y-131692600D01*
X127015200Y-86542600D02*
X127015200Y-87302600D01*
X161015200Y-86542600D02*
X161015200Y-87302600D01*
X93015200Y-120542600D02*
X93015200Y-121302600D01*
X127015200Y-120542600D02*
X127015200Y-121302600D01*
X161015200Y-120542600D02*
X161015200Y-121302600D01*
X93015200Y-154542600D02*
X93015200Y-155302600D01*
X127015200Y-154542600D02*
X127015200Y-155302600D01*
X161015200Y-154542600D02*
X161015200Y-155302600D01*
X99015200Y-75802600D02*
X99015200Y-87302600D01*
X107115200Y-67702600D02*
X99015200Y-75802600D01*
X141115200Y-67702600D02*
X133015200Y-75802600D01*
X175115200Y-67702600D02*
X167015200Y-75802600D01*
X107115200Y-101702600D02*
X99015200Y-109802600D01*
X141115200Y-101702600D02*
X133015200Y-109802600D01*
X175115200Y-101702600D02*
X167015200Y-109802600D01*
X107115200Y-135702600D02*
X99015200Y-143802600D01*
X141115200Y-135702600D02*
X133015200Y-143802600D01*
X175115200Y-135702600D02*
X167015200Y-143802600D01*
X133015200Y-75802600D02*
X133015200Y-87302600D01*
X167015200Y-75802600D02*
X167015200Y-87302600D01*
X99015200Y-109802600D02*
X99015200Y-121302600D01*
X133015200Y-109802600D02*
X133015200Y-121302600D01*
X167015200Y-109802600D02*
X167015200Y-121302600D01*
X99015200Y-143802600D02*
X99015200Y-155302600D01*
X133015200Y-143802600D02*
X133015200Y-155302600D01*
X167015200Y-143802600D02*
X167015200Y-155302600D01*
X89615200Y-77557610D02*
X89615200Y-78902600D01*
X88915200Y-76857610D02*
X89615200Y-77557610D01*
X88915200Y-66102600D02*
X88915200Y-76857610D01*
X86515200Y-68782600D02*
X86515200Y-66102600D01*
X82015200Y-70302600D02*
X84995200Y-70302600D01*
X84995200Y-70302600D02*
X86515200Y-68782600D01*
X123615200Y-77557610D02*
X123615200Y-78902600D01*
X157615200Y-77557610D02*
X157615200Y-78902600D01*
X89615200Y-111557610D02*
X89615200Y-112902600D01*
X123615200Y-111557610D02*
X123615200Y-112902600D01*
X157615200Y-111557610D02*
X157615200Y-112902600D01*
X89615200Y-145557610D02*
X89615200Y-146902600D01*
X123615200Y-145557610D02*
X123615200Y-146902600D01*
X157615200Y-145557610D02*
X157615200Y-146902600D01*
X122915200Y-66102600D02*
X122915200Y-76857610D01*
X156915200Y-66102600D02*
X156915200Y-76857610D01*
X88915200Y-100102600D02*
X88915200Y-110857610D01*
X122915200Y-100102600D02*
X122915200Y-110857610D01*
X156915200Y-100102600D02*
X156915200Y-110857610D01*
X88915200Y-134102600D02*
X88915200Y-144857610D01*
X122915200Y-134102600D02*
X122915200Y-144857610D01*
X156915200Y-134102600D02*
X156915200Y-144857610D01*
X122915200Y-76857610D02*
X123615200Y-77557610D01*
X156915200Y-76857610D02*
X157615200Y-77557610D01*
X88915200Y-110857610D02*
X89615200Y-111557610D01*
X122915200Y-110857610D02*
X123615200Y-111557610D01*
X156915200Y-110857610D02*
X157615200Y-111557610D01*
X88915200Y-144857610D02*
X89615200Y-145557610D01*
X122915200Y-144857610D02*
X123615200Y-145557610D01*
X156915200Y-144857610D02*
X157615200Y-145557610D01*
X118995200Y-70302600D02*
X120515200Y-68782600D01*
X152995200Y-70302600D02*
X154515200Y-68782600D01*
X84995200Y-104302600D02*
X86515200Y-102782600D01*
X118995200Y-104302600D02*
X120515200Y-102782600D01*
X152995200Y-104302600D02*
X154515200Y-102782600D01*
X84995200Y-138302600D02*
X86515200Y-136782600D01*
X118995200Y-138302600D02*
X120515200Y-136782600D01*
X152995200Y-138302600D02*
X154515200Y-136782600D01*
X120515200Y-68782600D02*
X120515200Y-66102600D01*
X154515200Y-68782600D02*
X154515200Y-66102600D01*
X86515200Y-102782600D02*
X86515200Y-100102600D01*
X120515200Y-102782600D02*
X120515200Y-100102600D01*
X154515200Y-102782600D02*
X154515200Y-100102600D01*
X86515200Y-136782600D02*
X86515200Y-134102600D01*
X120515200Y-136782600D02*
X120515200Y-134102600D01*
X154515200Y-136782600D02*
X154515200Y-134102600D01*
X116015200Y-70302600D02*
X118995200Y-70302600D01*
X150015200Y-70302600D02*
X152995200Y-70302600D01*
X82015200Y-104302600D02*
X84995200Y-104302600D01*
X116015200Y-104302600D02*
X118995200Y-104302600D01*
X150015200Y-104302600D02*
X152995200Y-104302600D01*
X82015200Y-138302600D02*
X84995200Y-138302600D01*
X116015200Y-138302600D02*
X118995200Y-138302600D01*
X150015200Y-138302600D02*
X152995200Y-138302600D01*
X90415200Y-79702600D02*
X90415200Y-77210608D01*
X89715200Y-76510608D02*
X90415200Y-77210608D01*
X89715200Y-76510608D02*
X89715200Y-65302600D01*
X87315200Y-65302600D02*
X87315200Y-69302600D01*
X84315200Y-72302600D02*
X82015200Y-72302600D01*
X87315200Y-69302600D02*
X84315200Y-72302600D01*
X123715200Y-76510608D02*
X124415200Y-77210608D01*
X157715200Y-76510608D02*
X158415200Y-77210608D01*
X89715200Y-110510608D02*
X90415200Y-111210608D01*
X123715200Y-110510608D02*
X124415200Y-111210608D01*
X157715200Y-110510608D02*
X158415200Y-111210608D01*
X89715200Y-144510608D02*
X90415200Y-145210608D01*
X123715200Y-144510608D02*
X124415200Y-145210608D01*
X157715200Y-144510608D02*
X158415200Y-145210608D01*
X124415200Y-79702600D02*
X124415200Y-77210608D01*
X158415200Y-79702600D02*
X158415200Y-77210608D01*
X90415200Y-113702600D02*
X90415200Y-111210608D01*
X124415200Y-113702600D02*
X124415200Y-111210608D01*
X158415200Y-113702600D02*
X158415200Y-111210608D01*
X90415200Y-147702600D02*
X90415200Y-145210608D01*
X124415200Y-147702600D02*
X124415200Y-145210608D01*
X158415200Y-147702600D02*
X158415200Y-145210608D01*
X123715200Y-76510608D02*
X123715200Y-65302600D01*
X157715200Y-76510608D02*
X157715200Y-65302600D01*
X89715200Y-110510608D02*
X89715200Y-99302600D01*
X123715200Y-110510608D02*
X123715200Y-99302600D01*
X157715200Y-110510608D02*
X157715200Y-99302600D01*
X89715200Y-144510608D02*
X89715200Y-133302600D01*
X123715200Y-144510608D02*
X123715200Y-133302600D01*
X157715200Y-144510608D02*
X157715200Y-133302600D01*
X118315200Y-72302600D02*
X116015200Y-72302600D01*
X152315200Y-72302600D02*
X150015200Y-72302600D01*
X84315200Y-106302600D02*
X82015200Y-106302600D01*
X118315200Y-106302600D02*
X116015200Y-106302600D01*
X152315200Y-106302600D02*
X150015200Y-106302600D01*
X84315200Y-140302600D02*
X82015200Y-140302600D01*
X118315200Y-140302600D02*
X116015200Y-140302600D01*
X152315200Y-140302600D02*
X150015200Y-140302600D01*
X121315200Y-69302600D02*
X118315200Y-72302600D01*
X155315200Y-69302600D02*
X152315200Y-72302600D01*
X87315200Y-103302600D02*
X84315200Y-106302600D01*
X121315200Y-103302600D02*
X118315200Y-106302600D01*
X155315200Y-103302600D02*
X152315200Y-106302600D01*
X87315200Y-137302600D02*
X84315200Y-140302600D01*
X121315200Y-137302600D02*
X118315200Y-140302600D01*
X155315200Y-137302600D02*
X152315200Y-140302600D01*
X121315200Y-65302600D02*
X121315200Y-69302600D01*
X155315200Y-65302600D02*
X155315200Y-69302600D01*
X87315200Y-99302600D02*
X87315200Y-103302600D01*
X121315200Y-99302600D02*
X121315200Y-103302600D01*
X155315200Y-99302600D02*
X155315200Y-103302600D01*
X87315200Y-133302600D02*
X87315200Y-137302600D01*
X121315200Y-133302600D02*
X121315200Y-137302600D01*
X155315200Y-133302600D02*
X155315200Y-137302600D01*
X91215200Y-80502600D02*
X91215200Y-76863606D01*
X90515200Y-76163606D02*
X91215200Y-76863606D01*
X90515200Y-76163606D02*
X90515200Y-64502600D01*
X83535200Y-74302600D02*
X82015200Y-74302600D01*
X88115200Y-64502600D02*
X88115200Y-69722600D01*
X88115200Y-69722600D02*
X83535200Y-74302600D01*
X124515200Y-76163606D02*
X125215200Y-76863606D01*
X158515200Y-76163606D02*
X159215200Y-76863606D01*
X90515200Y-110163606D02*
X91215200Y-110863606D01*
X124515200Y-110163606D02*
X125215200Y-110863606D01*
X158515200Y-110163606D02*
X159215200Y-110863606D01*
X90515200Y-144163606D02*
X91215200Y-144863606D01*
X124515200Y-144163606D02*
X125215200Y-144863606D01*
X158515200Y-144163606D02*
X159215200Y-144863606D01*
X124515200Y-76163606D02*
X124515200Y-64502600D01*
X158515200Y-76163606D02*
X158515200Y-64502600D01*
X90515200Y-110163606D02*
X90515200Y-98502600D01*
X124515200Y-110163606D02*
X124515200Y-98502600D01*
X158515200Y-110163606D02*
X158515200Y-98502600D01*
X90515200Y-144163606D02*
X90515200Y-132502600D01*
X124515200Y-144163606D02*
X124515200Y-132502600D01*
X158515200Y-144163606D02*
X158515200Y-132502600D01*
X125215200Y-80502600D02*
X125215200Y-76863606D01*
X159215200Y-80502600D02*
X159215200Y-76863606D01*
X91215200Y-114502600D02*
X91215200Y-110863606D01*
X125215200Y-114502600D02*
X125215200Y-110863606D01*
X159215200Y-114502600D02*
X159215200Y-110863606D01*
X91215200Y-148502600D02*
X91215200Y-144863606D01*
X125215200Y-148502600D02*
X125215200Y-144863606D01*
X159215200Y-148502600D02*
X159215200Y-144863606D01*
X117535200Y-74302600D02*
X116015200Y-74302600D01*
X151535200Y-74302600D02*
X150015200Y-74302600D01*
X83535200Y-108302600D02*
X82015200Y-108302600D01*
X117535200Y-108302600D02*
X116015200Y-108302600D01*
X151535200Y-108302600D02*
X150015200Y-108302600D01*
X83535200Y-142302600D02*
X82015200Y-142302600D01*
X117535200Y-142302600D02*
X116015200Y-142302600D01*
X151535200Y-142302600D02*
X150015200Y-142302600D01*
X122115200Y-69722600D02*
X117535200Y-74302600D01*
X156115200Y-69722600D02*
X151535200Y-74302600D01*
X88115200Y-103722600D02*
X83535200Y-108302600D01*
X122115200Y-103722600D02*
X117535200Y-108302600D01*
X156115200Y-103722600D02*
X151535200Y-108302600D01*
X88115200Y-137722600D02*
X83535200Y-142302600D01*
X122115200Y-137722600D02*
X117535200Y-142302600D01*
X156115200Y-137722600D02*
X151535200Y-142302600D01*
X122115200Y-64502600D02*
X122115200Y-69722600D01*
X156115200Y-64502600D02*
X156115200Y-69722600D01*
X88115200Y-98502600D02*
X88115200Y-103722600D01*
X122115200Y-98502600D02*
X122115200Y-103722600D01*
X156115200Y-98502600D02*
X156115200Y-103722600D01*
X88115200Y-132502600D02*
X88115200Y-137722600D01*
X122115200Y-132502600D02*
X122115200Y-137722600D01*
X156115200Y-132502600D02*
X156115200Y-137722600D01*
X93615200Y-82102600D02*
X93615200Y-75822600D01*
X92915200Y-75122600D02*
X92915200Y-74822600D01*
X93615200Y-75822600D02*
X93165200Y-75372600D01*
X92915200Y-74822600D02*
X92915200Y-72502600D01*
X93165200Y-75372600D02*
X92915200Y-75122600D01*
X127165200Y-75372600D02*
X126915200Y-75122600D01*
X161165200Y-75372600D02*
X160915200Y-75122600D01*
X93165200Y-109372600D02*
X92915200Y-109122600D01*
X127165200Y-109372600D02*
X126915200Y-109122600D01*
X161165200Y-109372600D02*
X160915200Y-109122600D01*
X93165200Y-143372600D02*
X92915200Y-143122600D01*
X127165200Y-143372600D02*
X126915200Y-143122600D01*
X161165200Y-143372600D02*
X160915200Y-143122600D01*
X127615200Y-75822600D02*
X127165200Y-75372600D01*
X161615200Y-75822600D02*
X161165200Y-75372600D01*
X93615200Y-109822600D02*
X93165200Y-109372600D01*
X127615200Y-109822600D02*
X127165200Y-109372600D01*
X161615200Y-109822600D02*
X161165200Y-109372600D01*
X93615200Y-143822600D02*
X93165200Y-143372600D01*
X127615200Y-143822600D02*
X127165200Y-143372600D01*
X161615200Y-143822600D02*
X161165200Y-143372600D01*
X127615200Y-82102600D02*
X127615200Y-75822600D01*
X161615200Y-82102600D02*
X161615200Y-75822600D01*
X93615200Y-116102600D02*
X93615200Y-109822600D01*
X127615200Y-116102600D02*
X127615200Y-109822600D01*
X161615200Y-116102600D02*
X161615200Y-109822600D01*
X93615200Y-150102600D02*
X93615200Y-143822600D01*
X127615200Y-150102600D02*
X127615200Y-143822600D01*
X161615200Y-150102600D02*
X161615200Y-143822600D01*
X126915200Y-74822600D02*
X126915200Y-72502600D01*
X160915200Y-74822600D02*
X160915200Y-72502600D01*
X92915200Y-108822600D02*
X92915200Y-106502600D01*
X126915200Y-108822600D02*
X126915200Y-106502600D01*
X160915200Y-108822600D02*
X160915200Y-106502600D01*
X92915200Y-142822600D02*
X92915200Y-140502600D01*
X126915200Y-142822600D02*
X126915200Y-140502600D01*
X160915200Y-142822600D02*
X160915200Y-140502600D01*
X126915200Y-75122600D02*
X126915200Y-74822600D01*
X160915200Y-75122600D02*
X160915200Y-74822600D01*
X92915200Y-109122600D02*
X92915200Y-108822600D01*
X126915200Y-109122600D02*
X126915200Y-108822600D01*
X160915200Y-109122600D02*
X160915200Y-108822600D01*
X92915200Y-143122600D02*
X92915200Y-142822600D01*
X126915200Y-143122600D02*
X126915200Y-142822600D01*
X160915200Y-143122600D02*
X160915200Y-142822600D01*
X92140199Y-71727599D02*
X92115200Y-71702600D01*
X92140199Y-75494601D02*
X92140199Y-71727599D01*
X92815200Y-76169602D02*
X92441699Y-75796101D01*
X92815200Y-81872600D02*
X92815200Y-83102600D01*
X92815200Y-76169602D02*
X92815200Y-77592600D01*
X92815200Y-77592600D02*
X92815200Y-81872600D01*
X92441699Y-75796101D02*
X92140199Y-75494601D01*
X126140199Y-75494601D02*
X126140199Y-71727599D01*
X160140199Y-75494601D02*
X160140199Y-71727599D01*
X92140199Y-109494601D02*
X92140199Y-105727599D01*
X126140199Y-109494601D02*
X126140199Y-105727599D01*
X160140199Y-109494601D02*
X160140199Y-105727599D01*
X92140199Y-143494601D02*
X92140199Y-139727599D01*
X126140199Y-143494601D02*
X126140199Y-139727599D01*
X160140199Y-143494601D02*
X160140199Y-139727599D01*
X126815200Y-81872600D02*
X126815200Y-83102600D01*
X160815200Y-81872600D02*
X160815200Y-83102600D01*
X92815200Y-115872600D02*
X92815200Y-117102600D01*
X126815200Y-115872600D02*
X126815200Y-117102600D01*
X160815200Y-115872600D02*
X160815200Y-117102600D01*
X92815200Y-149872600D02*
X92815200Y-151102600D01*
X126815200Y-149872600D02*
X126815200Y-151102600D01*
X160815200Y-149872600D02*
X160815200Y-151102600D01*
X126815200Y-77592600D02*
X126815200Y-81872600D01*
X160815200Y-77592600D02*
X160815200Y-81872600D01*
X92815200Y-111592600D02*
X92815200Y-115872600D01*
X126815200Y-111592600D02*
X126815200Y-115872600D01*
X160815200Y-111592600D02*
X160815200Y-115872600D01*
X92815200Y-145592600D02*
X92815200Y-149872600D01*
X126815200Y-145592600D02*
X126815200Y-149872600D01*
X160815200Y-145592600D02*
X160815200Y-149872600D01*
X126441699Y-75796101D02*
X126140199Y-75494601D01*
X160441699Y-75796101D02*
X160140199Y-75494601D01*
X92441699Y-109796101D02*
X92140199Y-109494601D01*
X126441699Y-109796101D02*
X126140199Y-109494601D01*
X160441699Y-109796101D02*
X160140199Y-109494601D01*
X92441699Y-143796101D02*
X92140199Y-143494601D01*
X126441699Y-143796101D02*
X126140199Y-143494601D01*
X160441699Y-143796101D02*
X160140199Y-143494601D01*
X126815200Y-76169602D02*
X126441699Y-75796101D01*
X160815200Y-76169602D02*
X160441699Y-75796101D01*
X92815200Y-110169602D02*
X92441699Y-109796101D01*
X126815200Y-110169602D02*
X126441699Y-109796101D01*
X160815200Y-110169602D02*
X160441699Y-109796101D01*
X92815200Y-144169602D02*
X92441699Y-143796101D01*
X126815200Y-144169602D02*
X126441699Y-143796101D01*
X160815200Y-144169602D02*
X160441699Y-143796101D01*
X126140199Y-71727599D02*
X126115200Y-71702600D01*
X160140199Y-71727599D02*
X160115200Y-71702600D01*
X92140199Y-105727599D02*
X92115200Y-105702600D01*
X126140199Y-105727599D02*
X126115200Y-105702600D01*
X160140199Y-105727599D02*
X160115200Y-105702600D01*
X92140199Y-139727599D02*
X92115200Y-139702600D01*
X126140199Y-139727599D02*
X126115200Y-139702600D01*
X160140199Y-139727599D02*
X160115200Y-139702600D01*
X126815200Y-76169602D02*
X126815200Y-77592600D01*
X160815200Y-76169602D02*
X160815200Y-77592600D01*
X92815200Y-110169602D02*
X92815200Y-111592600D01*
X126815200Y-110169602D02*
X126815200Y-111592600D01*
X160815200Y-110169602D02*
X160815200Y-111592600D01*
X92815200Y-144169602D02*
X92815200Y-145592600D01*
X126815200Y-144169602D02*
X126815200Y-145592600D01*
X160815200Y-144169602D02*
X160815200Y-145592600D01*
M02*
