M48
METRIC
T1C0.500
%
G90
G05
T1
X95.26Y-123.536
X95.26Y-125.036
X96.01Y-123.536
X96.01Y-125.036
X96.76Y-123.536
X96.76Y-125.036
X163.26Y-89.536
X163.26Y-91.036
X164.01Y-89.536
X164.01Y-91.036
X164.76Y-89.536
X164.76Y-91.036
X163.26Y-89.572
X163.26Y-91.072
X164.01Y-89.572
X164.01Y-91.072
X164.76Y-89.572
X164.76Y-91.072
X129.26Y-123.572
X129.26Y-125.072
X130.01Y-123.572
X130.01Y-125.072
X130.76Y-123.572
X130.76Y-125.072
X129.263Y-89.536
X129.263Y-91.036
X130.013Y-89.536
X130.013Y-91.036
X130.763Y-89.536
X130.763Y-91.036
X129.26Y-89.536
X129.26Y-91.036
X130.01Y-89.536
X130.01Y-91.036
X130.76Y-89.536
X130.76Y-91.036
X146.28Y-140.556
X146.28Y-141.306
X146.28Y-142.056
X147.78Y-140.556
X147.78Y-141.306
X147.78Y-142.056
X95.263Y-123.536
X95.263Y-125.036
X96.013Y-123.536
X96.013Y-125.036
X96.763Y-123.536
X96.763Y-125.036
X95.26Y-89.572
X95.26Y-91.072
X96.01Y-89.572
X96.01Y-91.072
X96.76Y-89.572
X96.76Y-91.072
X112.244Y-106.556
X112.244Y-107.306
X112.244Y-108.056
X113.744Y-106.556
X113.744Y-107.306
X113.744Y-108.056
X146.28Y-72.556
X146.28Y-73.306
X146.28Y-74.056
X147.78Y-72.556
X147.78Y-73.306
X147.78Y-74.056
X146.244Y-72.556
X146.244Y-73.306
X146.244Y-74.056
X147.744Y-72.556
X147.744Y-73.306
X147.744Y-74.056
X129.26Y-89.536
X129.26Y-91.036
X130.01Y-89.536
X130.01Y-91.036
X130.76Y-89.536
X130.76Y-91.036
X163.263Y-123.572
X163.263Y-125.072
X164.013Y-123.572
X164.013Y-125.072
X164.763Y-123.572
X164.763Y-125.072
X112.28Y-140.556
X112.28Y-141.306
X112.28Y-142.056
X113.78Y-140.556
X113.78Y-141.306
X113.78Y-142.056
X95.263Y-123.536
X95.263Y-125.036
X96.013Y-123.536
X96.013Y-125.036
X96.763Y-123.536
X96.763Y-125.036
X112.244Y-106.556
X112.244Y-107.306
X112.244Y-108.056
X113.744Y-106.556
X113.744Y-107.306
X113.744Y-108.056
X146.28Y-106.556
X146.28Y-107.306
X146.28Y-108.056
X147.78Y-106.556
X147.78Y-107.306
X147.78Y-108.056
X95.26Y-123.572
X95.26Y-125.072
X96.01Y-123.572
X96.01Y-125.072
X96.76Y-123.572
X96.76Y-125.072
X129.26Y-89.572
X129.26Y-91.072
X130.01Y-89.572
X130.01Y-91.072
X130.76Y-89.572
X130.76Y-91.072
X129.263Y-89.572
X129.263Y-91.072
X130.013Y-89.572
X130.013Y-91.072
X130.763Y-89.572
X130.763Y-91.072
X146.244Y-140.556
X146.244Y-141.306
X146.244Y-142.056
X147.744Y-140.556
X147.744Y-141.306
X147.744Y-142.056
X112.244Y-106.556
X112.244Y-107.306
X112.244Y-108.056
X113.744Y-106.556
X113.744Y-107.306
X113.744Y-108.056
X129.263Y-123.572
X129.263Y-125.072
X130.013Y-123.572
X130.013Y-125.072
X130.763Y-123.572
X130.763Y-125.072
X112.28Y-72.556
X112.28Y-73.306
X112.28Y-74.056
X113.78Y-72.556
X113.78Y-73.306
X113.78Y-74.056
X112.28Y-106.556
X112.28Y-107.306
X112.28Y-108.056
X113.78Y-106.556
X113.78Y-107.306
X113.78Y-108.056
X146.244Y-140.556
X146.244Y-141.306
X146.244Y-142.056
X147.744Y-140.556
X147.744Y-141.306
X147.744Y-142.056
X146.244Y-106.556
X146.244Y-107.306
X146.244Y-108.056
X147.744Y-106.556
X147.744Y-107.306
X147.744Y-108.056
X112.244Y-140.556
X112.244Y-141.306
X112.244Y-142.056
X113.744Y-140.556
X113.744Y-141.306
X113.744Y-142.056
X163.26Y-123.536
X163.26Y-125.036
X164.01Y-123.536
X164.01Y-125.036
X164.76Y-123.536
X164.76Y-125.036
X112.244Y-72.556
X112.244Y-73.306
X112.244Y-74.056
X113.744Y-72.556
X113.744Y-73.306
X113.744Y-74.056
X146.244Y-72.556
X146.244Y-73.306
X146.244Y-74.056
X147.744Y-72.556
X147.744Y-73.306
X147.744Y-74.056
X129.263Y-123.536
X129.263Y-125.036
X130.013Y-123.536
X130.013Y-125.036
X130.763Y-123.536
X130.763Y-125.036
X112.28Y-72.556
X112.28Y-73.306
X112.28Y-74.056
X113.78Y-72.556
X113.78Y-73.306
X113.78Y-74.056
X112.244Y-140.556
X112.244Y-141.306
X112.244Y-142.056
X113.744Y-140.556
X113.744Y-141.306
X113.744Y-142.056
X163.263Y-123.536
X163.263Y-125.036
X164.013Y-123.536
X164.013Y-125.036
X164.763Y-123.536
X164.763Y-125.036
X112.244Y-140.556
X112.244Y-141.306
X112.244Y-142.056
X113.744Y-140.556
X113.744Y-141.306
X113.744Y-142.056
X112.244Y-72.556
X112.244Y-73.306
X112.244Y-74.056
X113.744Y-72.556
X113.744Y-73.306
X113.744Y-74.056
X146.28Y-72.556
X146.28Y-73.306
X146.28Y-74.056
X147.78Y-72.556
X147.78Y-73.306
X147.78Y-74.056
X146.244Y-72.556
X146.244Y-73.306
X146.244Y-74.056
X147.744Y-72.556
X147.744Y-73.306
X147.744Y-74.056
X129.26Y-123.536
X129.26Y-125.036
X130.01Y-123.536
X130.01Y-125.036
X130.76Y-123.536
X130.76Y-125.036
X95.263Y-123.572
X95.263Y-125.072
X96.013Y-123.572
X96.013Y-125.072
X96.763Y-123.572
X96.763Y-125.072
X163.263Y-89.536
X163.263Y-91.036
X164.013Y-89.536
X164.013Y-91.036
X164.763Y-89.536
X164.763Y-91.036
X146.28Y-140.556
X146.28Y-141.306
X146.28Y-142.056
X147.78Y-140.556
X147.78Y-141.306
X147.78Y-142.056
X146.244Y-140.556
X146.244Y-141.306
X146.244Y-142.056
X147.744Y-140.556
X147.744Y-141.306
X147.744Y-142.056
X146.244Y-140.556
X146.244Y-141.306
X146.244Y-142.056
X147.744Y-140.556
X147.744Y-141.306
X147.744Y-142.056
X146.244Y-106.556
X146.244Y-107.306
X146.244Y-108.056
X147.744Y-106.556
X147.744Y-107.306
X147.744Y-108.056
X163.26Y-123.572
X163.26Y-125.072
X164.01Y-123.572
X164.01Y-125.072
X164.76Y-123.572
X164.76Y-125.072
X163.26Y-89.536
X163.26Y-91.036
X164.01Y-89.536
X164.01Y-91.036
X164.76Y-89.536
X164.76Y-91.036
X95.263Y-89.536
X95.263Y-91.036
X96.013Y-89.536
X96.013Y-91.036
X96.763Y-89.536
X96.763Y-91.036
X95.26Y-89.536
X95.26Y-91.036
X96.01Y-89.536
X96.01Y-91.036
X96.76Y-89.536
X96.76Y-91.036
X163.263Y-89.536
X163.263Y-91.036
X164.013Y-89.536
X164.013Y-91.036
X164.763Y-89.536
X164.763Y-91.036
X112.244Y-72.556
X112.244Y-73.306
X112.244Y-74.056
X113.744Y-72.556
X113.744Y-73.306
X113.744Y-74.056
X129.263Y-123.536
X129.263Y-125.036
X130.013Y-123.536
X130.013Y-125.036
X130.763Y-123.536
X130.763Y-125.036
X146.244Y-72.556
X146.244Y-73.306
X146.244Y-74.056
X147.744Y-72.556
X147.744Y-73.306
X147.744Y-74.056
X112.28Y-140.556
X112.28Y-141.306
X112.28Y-142.056
X113.78Y-140.556
X113.78Y-141.306
X113.78Y-142.056
X146.28Y-106.556
X146.28Y-107.306
X146.28Y-108.056
X147.78Y-106.556
X147.78Y-107.306
X147.78Y-108.056
X95.26Y-123.536
X95.26Y-125.036
X96.01Y-123.536
X96.01Y-125.036
X96.76Y-123.536
X96.76Y-125.036
X112.244Y-72.556
X112.244Y-73.306
X112.244Y-74.056
X113.744Y-72.556
X113.744Y-73.306
X113.744Y-74.056
X163.26Y-123.536
X163.26Y-125.036
X164.01Y-123.536
X164.01Y-125.036
X164.76Y-123.536
X164.76Y-125.036
X129.263Y-89.536
X129.263Y-91.036
X130.013Y-89.536
X130.013Y-91.036
X130.763Y-89.536
X130.763Y-91.036
X129.26Y-123.536
X129.26Y-125.036
X130.01Y-123.536
X130.01Y-125.036
X130.76Y-123.536
X130.76Y-125.036
X163.263Y-89.572
X163.263Y-91.072
X164.013Y-89.572
X164.013Y-91.072
X164.763Y-89.572
X164.763Y-91.072
X95.26Y-89.536
X95.26Y-91.036
X96.01Y-89.536
X96.01Y-91.036
X96.76Y-89.536
X96.76Y-91.036
X146.244Y-106.556
X146.244Y-107.306
X146.244Y-108.056
X147.744Y-106.556
X147.744Y-107.306
X147.744Y-108.056
X95.263Y-89.536
X95.263Y-91.036
X96.013Y-89.536
X96.013Y-91.036
X96.763Y-89.536
X96.763Y-91.036
X95.263Y-89.572
X95.263Y-91.072
X96.013Y-89.572
X96.013Y-91.072
X96.763Y-89.572
X96.763Y-91.072
X163.263Y-123.536
X163.263Y-125.036
X164.013Y-123.536
X164.013Y-125.036
X164.763Y-123.536
X164.763Y-125.036
X146.244Y-106.556
X146.244Y-107.306
X146.244Y-108.056
X147.744Y-106.556
X147.744Y-107.306
X147.744Y-108.056
X112.28Y-106.556
X112.28Y-107.306
X112.28Y-108.056
X113.78Y-106.556
X113.78Y-107.306
X113.78Y-108.056
X112.244Y-140.556
X112.244Y-141.306
X112.244Y-142.056
X113.744Y-140.556
X113.744Y-141.306
X113.744Y-142.056
X112.244Y-106.556
X112.244Y-107.306
X112.244Y-108.056
X113.744Y-106.556
X113.744Y-107.306
X113.744Y-108.056
T0
M30
