G04 #@! TF.GenerationSoftware,KiCad,Pcbnew,(5.1.5)-3*
G04 #@! TF.CreationDate,2021-06-29T22:10:07+07:00*
G04 #@! TF.ProjectId,noname,6e6f6e61-6d65-42e6-9b69-6361645f7063,rev?*
G04 #@! TF.SameCoordinates,Original*
G04 #@! TF.FileFunction,Copper,L3,Inr*
G04 #@! TF.FilePolarity,Positive*
%FSLAX46Y46*%
G04 Gerber Fmt 4.6, Leading zero omitted, Abs format (unit mm)*
G04 Created by KiCad (PCBNEW (5.1.5)-3) date 2021-06-29 22:10:07*
%MOMM*%
%LPD*%
G04 APERTURE LIST*
%ADD10R,1.350000X1.350000*%
%ADD11O,1.350000X1.350000*%
%ADD12C,0.800000*%
%ADD13C,0.500000*%
G04 APERTURE END LIST*
D10*
X155015200Y-127302600D03*
D11*
X157015200Y-127302600D03*
X159015200Y-127302600D03*
X161015200Y-127302600D03*
X163015200Y-127302600D03*
X165015200Y-127302600D03*
X167015200Y-127302600D03*
X169015200Y-127302600D03*
X171015200Y-127302600D03*
X173015200Y-127302600D03*
D10*
X121015200Y-127302600D03*
D11*
X123015200Y-127302600D03*
X125015200Y-127302600D03*
X127015200Y-127302600D03*
X129015200Y-127302600D03*
X131015200Y-127302600D03*
X133015200Y-127302600D03*
X135015200Y-127302600D03*
X137015200Y-127302600D03*
X139015200Y-127302600D03*
D10*
X87015200Y-127302600D03*
D11*
X89015200Y-127302600D03*
X91015200Y-127302600D03*
X93015200Y-127302600D03*
X95015200Y-127302600D03*
X97015200Y-127302600D03*
X99015200Y-127302600D03*
X101015200Y-127302600D03*
X103015200Y-127302600D03*
X105015200Y-127302600D03*
D10*
X155015200Y-93302600D03*
D11*
X157015200Y-93302600D03*
X159015200Y-93302600D03*
X161015200Y-93302600D03*
X163015200Y-93302600D03*
X165015200Y-93302600D03*
X167015200Y-93302600D03*
X169015200Y-93302600D03*
X171015200Y-93302600D03*
X173015200Y-93302600D03*
D10*
X121015200Y-93302600D03*
D11*
X123015200Y-93302600D03*
X125015200Y-93302600D03*
X127015200Y-93302600D03*
X129015200Y-93302600D03*
X131015200Y-93302600D03*
X133015200Y-93302600D03*
X135015200Y-93302600D03*
X137015200Y-93302600D03*
X139015200Y-93302600D03*
D10*
X87015200Y-93302600D03*
D11*
X89015200Y-93302600D03*
X91015200Y-93302600D03*
X93015200Y-93302600D03*
X95015200Y-93302600D03*
X97015200Y-93302600D03*
X99015200Y-93302600D03*
X101015200Y-93302600D03*
X103015200Y-93302600D03*
X105015200Y-93302600D03*
D10*
X155015200Y-59302600D03*
D11*
X157015200Y-59302600D03*
X159015200Y-59302600D03*
X161015200Y-59302600D03*
X163015200Y-59302600D03*
X165015200Y-59302600D03*
X167015200Y-59302600D03*
X169015200Y-59302600D03*
X171015200Y-59302600D03*
X173015200Y-59302600D03*
D10*
X121015200Y-59302600D03*
D11*
X123015200Y-59302600D03*
X125015200Y-59302600D03*
X127015200Y-59302600D03*
X129015200Y-59302600D03*
X131015200Y-59302600D03*
X133015200Y-59302600D03*
X135015200Y-59302600D03*
X137015200Y-59302600D03*
X139015200Y-59302600D03*
X155015200Y-155302600D03*
X157015200Y-155302600D03*
X159015200Y-155302600D03*
X161015200Y-155302600D03*
X163015200Y-155302600D03*
X165015200Y-155302600D03*
X167015200Y-155302600D03*
X169015200Y-155302600D03*
X171015200Y-155302600D03*
D10*
X173015200Y-155302600D03*
D11*
X121015200Y-155302600D03*
X123015200Y-155302600D03*
X125015200Y-155302600D03*
X127015200Y-155302600D03*
X129015200Y-155302600D03*
X131015200Y-155302600D03*
X133015200Y-155302600D03*
X135015200Y-155302600D03*
X137015200Y-155302600D03*
D10*
X139015200Y-155302600D03*
D11*
X87015200Y-155302600D03*
X89015200Y-155302600D03*
X91015200Y-155302600D03*
X93015200Y-155302600D03*
X95015200Y-155302600D03*
X97015200Y-155302600D03*
X99015200Y-155302600D03*
X101015200Y-155302600D03*
X103015200Y-155302600D03*
D10*
X105015200Y-155302600D03*
D11*
X155015200Y-121302600D03*
X157015200Y-121302600D03*
X159015200Y-121302600D03*
X161015200Y-121302600D03*
X163015200Y-121302600D03*
X165015200Y-121302600D03*
X167015200Y-121302600D03*
X169015200Y-121302600D03*
X171015200Y-121302600D03*
D10*
X173015200Y-121302600D03*
D11*
X121015200Y-121302600D03*
X123015200Y-121302600D03*
X125015200Y-121302600D03*
X127015200Y-121302600D03*
X129015200Y-121302600D03*
X131015200Y-121302600D03*
X133015200Y-121302600D03*
X135015200Y-121302600D03*
X137015200Y-121302600D03*
D10*
X139015200Y-121302600D03*
D11*
X87015200Y-121302600D03*
X89015200Y-121302600D03*
X91015200Y-121302600D03*
X93015200Y-121302600D03*
X95015200Y-121302600D03*
X97015200Y-121302600D03*
X99015200Y-121302600D03*
X101015200Y-121302600D03*
X103015200Y-121302600D03*
D10*
X105015200Y-121302600D03*
D11*
X155015200Y-87302600D03*
X157015200Y-87302600D03*
X159015200Y-87302600D03*
X161015200Y-87302600D03*
X163015200Y-87302600D03*
X165015200Y-87302600D03*
X167015200Y-87302600D03*
X169015200Y-87302600D03*
X171015200Y-87302600D03*
D10*
X173015200Y-87302600D03*
D11*
X121015200Y-87302600D03*
X123015200Y-87302600D03*
X125015200Y-87302600D03*
X127015200Y-87302600D03*
X129015200Y-87302600D03*
X131015200Y-87302600D03*
X133015200Y-87302600D03*
X135015200Y-87302600D03*
X137015200Y-87302600D03*
D10*
X139015200Y-87302600D03*
X150015200Y-150302600D03*
D11*
X150015200Y-148302600D03*
X150015200Y-146302600D03*
X150015200Y-144302600D03*
X150015200Y-142302600D03*
X150015200Y-140302600D03*
X150015200Y-138302600D03*
X150015200Y-136302600D03*
X150015200Y-134302600D03*
X150015200Y-132302600D03*
D10*
X116015200Y-150302600D03*
D11*
X116015200Y-148302600D03*
X116015200Y-146302600D03*
X116015200Y-144302600D03*
X116015200Y-142302600D03*
X116015200Y-140302600D03*
X116015200Y-138302600D03*
X116015200Y-136302600D03*
X116015200Y-134302600D03*
X116015200Y-132302600D03*
D10*
X82015200Y-150302600D03*
D11*
X82015200Y-148302600D03*
X82015200Y-146302600D03*
X82015200Y-144302600D03*
X82015200Y-142302600D03*
X82015200Y-140302600D03*
X82015200Y-138302600D03*
X82015200Y-136302600D03*
X82015200Y-134302600D03*
X82015200Y-132302600D03*
D10*
X150015200Y-116302600D03*
D11*
X150015200Y-114302600D03*
X150015200Y-112302600D03*
X150015200Y-110302600D03*
X150015200Y-108302600D03*
X150015200Y-106302600D03*
X150015200Y-104302600D03*
X150015200Y-102302600D03*
X150015200Y-100302600D03*
X150015200Y-98302600D03*
D10*
X116015200Y-116302600D03*
D11*
X116015200Y-114302600D03*
X116015200Y-112302600D03*
X116015200Y-110302600D03*
X116015200Y-108302600D03*
X116015200Y-106302600D03*
X116015200Y-104302600D03*
X116015200Y-102302600D03*
X116015200Y-100302600D03*
X116015200Y-98302600D03*
D10*
X82015200Y-116302600D03*
D11*
X82015200Y-114302600D03*
X82015200Y-112302600D03*
X82015200Y-110302600D03*
X82015200Y-108302600D03*
X82015200Y-106302600D03*
X82015200Y-104302600D03*
X82015200Y-102302600D03*
X82015200Y-100302600D03*
X82015200Y-98302600D03*
D10*
X150015200Y-82302600D03*
D11*
X150015200Y-80302600D03*
X150015200Y-78302600D03*
X150015200Y-76302600D03*
X150015200Y-74302600D03*
X150015200Y-72302600D03*
X150015200Y-70302600D03*
X150015200Y-68302600D03*
X150015200Y-66302600D03*
X150015200Y-64302600D03*
D10*
X116015200Y-82302600D03*
D11*
X116015200Y-80302600D03*
X116015200Y-78302600D03*
X116015200Y-76302600D03*
X116015200Y-74302600D03*
X116015200Y-72302600D03*
X116015200Y-70302600D03*
X116015200Y-68302600D03*
X116015200Y-66302600D03*
X116015200Y-64302600D03*
D10*
X178015200Y-132302600D03*
D11*
X178015200Y-134302600D03*
X178015200Y-136302600D03*
X178015200Y-138302600D03*
X178015200Y-140302600D03*
X178015200Y-142302600D03*
X178015200Y-144302600D03*
X178015200Y-146302600D03*
X178015200Y-148302600D03*
X178015200Y-150302600D03*
D10*
X144015200Y-132302600D03*
D11*
X144015200Y-134302600D03*
X144015200Y-136302600D03*
X144015200Y-138302600D03*
X144015200Y-140302600D03*
X144015200Y-142302600D03*
X144015200Y-144302600D03*
X144015200Y-146302600D03*
X144015200Y-148302600D03*
X144015200Y-150302600D03*
D10*
X110015200Y-132302600D03*
D11*
X110015200Y-134302600D03*
X110015200Y-136302600D03*
X110015200Y-138302600D03*
X110015200Y-140302600D03*
X110015200Y-142302600D03*
X110015200Y-144302600D03*
X110015200Y-146302600D03*
X110015200Y-148302600D03*
X110015200Y-150302600D03*
D10*
X178015200Y-98302600D03*
D11*
X178015200Y-100302600D03*
X178015200Y-102302600D03*
X178015200Y-104302600D03*
X178015200Y-106302600D03*
X178015200Y-108302600D03*
X178015200Y-110302600D03*
X178015200Y-112302600D03*
X178015200Y-114302600D03*
X178015200Y-116302600D03*
D10*
X144015200Y-98302600D03*
D11*
X144015200Y-100302600D03*
X144015200Y-102302600D03*
X144015200Y-104302600D03*
X144015200Y-106302600D03*
X144015200Y-108302600D03*
X144015200Y-110302600D03*
X144015200Y-112302600D03*
X144015200Y-114302600D03*
X144015200Y-116302600D03*
D10*
X110015200Y-98302600D03*
D11*
X110015200Y-100302600D03*
X110015200Y-102302600D03*
X110015200Y-104302600D03*
X110015200Y-106302600D03*
X110015200Y-108302600D03*
X110015200Y-110302600D03*
X110015200Y-112302600D03*
X110015200Y-114302600D03*
X110015200Y-116302600D03*
D10*
X178015200Y-64302600D03*
D11*
X178015200Y-66302600D03*
X178015200Y-68302600D03*
X178015200Y-70302600D03*
X178015200Y-72302600D03*
X178015200Y-74302600D03*
X178015200Y-76302600D03*
X178015200Y-78302600D03*
X178015200Y-80302600D03*
X178015200Y-82302600D03*
D10*
X144015200Y-64302600D03*
D11*
X144015200Y-66302600D03*
X144015200Y-68302600D03*
X144015200Y-70302600D03*
X144015200Y-72302600D03*
X144015200Y-74302600D03*
X144015200Y-76302600D03*
X144015200Y-78302600D03*
X144015200Y-80302600D03*
X144015200Y-82302600D03*
X110015200Y-82302600D03*
X110015200Y-80302600D03*
X110015200Y-78302600D03*
X110015200Y-76302600D03*
X110015200Y-74302600D03*
X110015200Y-72302600D03*
X110015200Y-70302600D03*
X110015200Y-68302600D03*
X110015200Y-66302600D03*
D10*
X110015200Y-64302600D03*
D11*
X82015200Y-64302600D03*
X82015200Y-66302600D03*
X82015200Y-68302600D03*
X82015200Y-70302600D03*
X82015200Y-72302600D03*
X82015200Y-74302600D03*
X82015200Y-76302600D03*
X82015200Y-78302600D03*
X82015200Y-80302600D03*
D10*
X82015200Y-82302600D03*
X105015200Y-87302600D03*
D11*
X103015200Y-87302600D03*
X101015200Y-87302600D03*
X99015200Y-87302600D03*
X97015200Y-87302600D03*
X95015200Y-87302600D03*
X93015200Y-87302600D03*
X91015200Y-87302600D03*
X89015200Y-87302600D03*
X87015200Y-87302600D03*
X105015200Y-59302600D03*
X103015200Y-59302600D03*
X101015200Y-59302600D03*
X99015200Y-59302600D03*
X97015200Y-59302600D03*
X95015200Y-59302600D03*
X93015200Y-59302600D03*
X91015200Y-59302600D03*
X89015200Y-59302600D03*
D10*
X87015200Y-59302600D03*
D12*
X84115200Y-66902600D03*
X87325200Y-74642600D03*
X94415200Y-83902600D03*
X106015200Y-81302600D03*
X107115200Y-69302600D03*
X92915200Y-69352610D03*
X100815200Y-76402600D03*
X121325200Y-74642600D03*
X155325200Y-74642600D03*
X87325200Y-108642600D03*
X121325200Y-108642600D03*
X155325200Y-108642600D03*
X87325200Y-142642600D03*
X121325200Y-142642600D03*
X155325200Y-142642600D03*
X128415200Y-83902600D03*
X162415200Y-83902600D03*
X94415200Y-117902600D03*
X128415200Y-117902600D03*
X162415200Y-117902600D03*
X94415200Y-151902600D03*
X128415200Y-151902600D03*
X162415200Y-151902600D03*
X141115200Y-69302600D03*
X175115200Y-69302600D03*
X107115200Y-103302600D03*
X141115200Y-103302600D03*
X175115200Y-103302600D03*
X107115200Y-137302600D03*
X141115200Y-137302600D03*
X175115200Y-137302600D03*
X118115200Y-66902600D03*
X152115200Y-66902600D03*
X84115200Y-100902600D03*
X118115200Y-100902600D03*
X152115200Y-100902600D03*
X84115200Y-134902600D03*
X118115200Y-134902600D03*
X152115200Y-134902600D03*
X140015200Y-81302600D03*
X174015200Y-81302600D03*
X106015200Y-115302600D03*
X140015200Y-115302600D03*
X174015200Y-115302600D03*
X106015200Y-149302600D03*
X140015200Y-149302600D03*
X174015200Y-149302600D03*
X126915200Y-69352610D03*
X160915200Y-69352610D03*
X92915200Y-103352610D03*
X126915200Y-103352610D03*
X160915200Y-103352610D03*
X92915200Y-137352610D03*
X126915200Y-137352610D03*
X160915200Y-137352610D03*
X134815200Y-76402600D03*
X168815200Y-76402600D03*
X100815200Y-110402600D03*
X134815200Y-110402600D03*
X168815200Y-110402600D03*
X100815200Y-144402600D03*
X134815200Y-144402600D03*
X168815200Y-144402600D03*
X91315200Y-63702600D03*
X91315200Y-67702600D03*
X92015200Y-77302600D03*
X125315200Y-67702600D03*
X159315200Y-67702600D03*
X91315200Y-101702600D03*
X125315200Y-101702600D03*
X159315200Y-101702600D03*
X91315200Y-135702600D03*
X125315200Y-135702600D03*
X159315200Y-135702600D03*
X126015200Y-77302600D03*
X160015200Y-77302600D03*
X92015200Y-111302600D03*
X126015200Y-111302600D03*
X160015200Y-111302600D03*
X92015200Y-145302600D03*
X126015200Y-145302600D03*
X160015200Y-145302600D03*
X125315200Y-63702600D03*
X159315200Y-63702600D03*
X91315200Y-97702600D03*
X125315200Y-97702600D03*
X159315200Y-97702600D03*
X91315200Y-131702600D03*
X125315200Y-131702600D03*
X159315200Y-131702600D03*
X102415200Y-77202600D03*
X136415200Y-77202600D03*
X170415200Y-77202600D03*
X102415200Y-111202600D03*
X136415200Y-111202600D03*
X170415200Y-111202600D03*
X102415200Y-145202600D03*
X136415200Y-145202600D03*
X170415200Y-145202600D03*
X103215200Y-76402600D03*
X137215200Y-76402600D03*
X171215200Y-76402600D03*
X103215200Y-110402600D03*
X137215200Y-110402600D03*
X171215200Y-110402600D03*
X103215200Y-144402600D03*
X137215200Y-144402600D03*
X171215200Y-144402600D03*
X96815200Y-76402600D03*
X130815200Y-76402600D03*
X164815200Y-76402600D03*
X96815200Y-110402600D03*
X130815200Y-110402600D03*
X164815200Y-110402600D03*
X96815200Y-144402600D03*
X130815200Y-144402600D03*
X164815200Y-144402600D03*
X87325200Y-82782600D03*
X92115200Y-68502600D03*
X100815200Y-62202600D03*
X100015200Y-77202600D03*
X134015200Y-77202600D03*
X168015200Y-77202600D03*
X100015200Y-111202600D03*
X134015200Y-111202600D03*
X168015200Y-111202600D03*
X100015200Y-145202600D03*
X134015200Y-145202600D03*
X168015200Y-145202600D03*
X121325200Y-82782600D03*
X155325200Y-82782600D03*
X87325200Y-116782600D03*
X121325200Y-116782600D03*
X155325200Y-116782600D03*
X87325200Y-150782600D03*
X121325200Y-150782600D03*
X155325200Y-150782600D03*
X126115200Y-68502600D03*
X160115200Y-68502600D03*
X92115200Y-102502600D03*
X126115200Y-102502600D03*
X160115200Y-102502600D03*
X92115200Y-136502600D03*
X126115200Y-136502600D03*
X160115200Y-136502600D03*
X134815200Y-62202600D03*
X168815200Y-62202600D03*
X100815200Y-96202600D03*
X134815200Y-96202600D03*
X168815200Y-96202600D03*
X100815200Y-130202600D03*
X134815200Y-130202600D03*
X168815200Y-130202600D03*
X94415200Y-76402600D03*
X128415200Y-76402600D03*
X162415200Y-76402600D03*
X94415200Y-110402600D03*
X128415200Y-110402600D03*
X162415200Y-110402600D03*
X94415200Y-144402600D03*
X128415200Y-144402600D03*
X162415200Y-144402600D03*
X96015200Y-77202600D03*
X130015200Y-77202600D03*
X164015200Y-77202600D03*
X96015200Y-111202600D03*
X130015200Y-111202600D03*
X164015200Y-111202600D03*
X96015200Y-145202600D03*
X130015200Y-145202600D03*
X164015200Y-145202600D03*
X97615200Y-62202600D03*
X131615200Y-62202600D03*
X165615200Y-62202600D03*
X97615200Y-96202600D03*
X131615200Y-96202600D03*
X165615200Y-96202600D03*
X97615200Y-130202600D03*
X131615200Y-130202600D03*
X165615200Y-130202600D03*
X107115200Y-67702600D03*
X141115200Y-67702600D03*
X175115200Y-67702600D03*
X107115200Y-101702600D03*
X141115200Y-101702600D03*
X175115200Y-101702600D03*
X107115200Y-135702600D03*
X141115200Y-135702600D03*
X175115200Y-135702600D03*
X107915200Y-70102600D03*
X141915200Y-70102600D03*
X175915200Y-70102600D03*
X107915200Y-104102600D03*
X141915200Y-104102600D03*
X175915200Y-104102600D03*
X107915200Y-138102600D03*
X141915200Y-138102600D03*
X175915200Y-138102600D03*
X107915200Y-68502600D03*
X141915200Y-68502600D03*
X175915200Y-68502600D03*
X107915200Y-102502600D03*
X141915200Y-102502600D03*
X175915200Y-102502600D03*
X107915200Y-136502600D03*
X141915200Y-136502600D03*
X175915200Y-136502600D03*
X84815200Y-78102600D03*
X118815200Y-78102600D03*
X152815200Y-78102600D03*
X84815200Y-112102600D03*
X118815200Y-112102600D03*
X152815200Y-112102600D03*
X84815200Y-146102600D03*
X118815200Y-146102600D03*
X152815200Y-146102600D03*
X86515200Y-66102600D03*
X88915200Y-66102600D03*
X89615200Y-78902600D03*
X120515200Y-66102600D03*
X154515200Y-66102600D03*
X86515200Y-100102600D03*
X120515200Y-100102600D03*
X154515200Y-100102600D03*
X86515200Y-134102600D03*
X120515200Y-134102600D03*
X154515200Y-134102600D03*
X122915200Y-66102600D03*
X156915200Y-66102600D03*
X88915200Y-100102600D03*
X122915200Y-100102600D03*
X156915200Y-100102600D03*
X88915200Y-134102600D03*
X122915200Y-134102600D03*
X156915200Y-134102600D03*
X123615200Y-78902600D03*
X157615200Y-78902600D03*
X89615200Y-112902600D03*
X123615200Y-112902600D03*
X157615200Y-112902600D03*
X89615200Y-146902600D03*
X123615200Y-146902600D03*
X157615200Y-146902600D03*
X87315200Y-65302600D03*
X89715200Y-65302600D03*
X90415200Y-79702600D03*
X123715200Y-65302600D03*
X157715200Y-65302600D03*
X89715200Y-99302600D03*
X123715200Y-99302600D03*
X157715200Y-99302600D03*
X89715200Y-133302600D03*
X123715200Y-133302600D03*
X157715200Y-133302600D03*
X124415200Y-79702600D03*
X158415200Y-79702600D03*
X90415200Y-113702600D03*
X124415200Y-113702600D03*
X158415200Y-113702600D03*
X90415200Y-147702600D03*
X124415200Y-147702600D03*
X158415200Y-147702600D03*
X121315200Y-65302600D03*
X155315200Y-65302600D03*
X87315200Y-99302600D03*
X121315200Y-99302600D03*
X155315200Y-99302600D03*
X87315200Y-133302600D03*
X121315200Y-133302600D03*
X155315200Y-133302600D03*
X88115200Y-64502600D03*
X90515200Y-64502600D03*
X91215200Y-80502600D03*
X122115200Y-64502600D03*
X156115200Y-64502600D03*
X88115200Y-98502600D03*
X122115200Y-98502600D03*
X156115200Y-98502600D03*
X88115200Y-132502600D03*
X122115200Y-132502600D03*
X156115200Y-132502600D03*
X125215200Y-80502600D03*
X159215200Y-80502600D03*
X91215200Y-114502600D03*
X125215200Y-114502600D03*
X159215200Y-114502600D03*
X91215200Y-148502600D03*
X125215200Y-148502600D03*
X159215200Y-148502600D03*
X124515200Y-64502600D03*
X158515200Y-64502600D03*
X90515200Y-98502600D03*
X124515200Y-98502600D03*
X158515200Y-98502600D03*
X90515200Y-132502600D03*
X124515200Y-132502600D03*
X158515200Y-132502600D03*
X93615200Y-82102600D03*
X92915200Y-72502600D03*
X127615200Y-82102600D03*
X161615200Y-82102600D03*
X93615200Y-116102600D03*
X127615200Y-116102600D03*
X161615200Y-116102600D03*
X93615200Y-150102600D03*
X127615200Y-150102600D03*
X161615200Y-150102600D03*
X126915200Y-72502600D03*
X160915200Y-72502600D03*
X92915200Y-106502600D03*
X126915200Y-106502600D03*
X160915200Y-106502600D03*
X92915200Y-140502600D03*
X126915200Y-140502600D03*
X160915200Y-140502600D03*
X92115200Y-71702600D03*
X92815200Y-83102600D03*
X126815200Y-83102600D03*
X160815200Y-83102600D03*
X92815200Y-117102600D03*
X126815200Y-117102600D03*
X160815200Y-117102600D03*
X92815200Y-151102600D03*
X126815200Y-151102600D03*
X160815200Y-151102600D03*
X126115200Y-71702600D03*
X160115200Y-71702600D03*
X92115200Y-105702600D03*
X126115200Y-105702600D03*
X160115200Y-105702600D03*
X92115200Y-139702600D03*
X126115200Y-139702600D03*
X160115200Y-139702600D03*
X86227700Y-62202600D03*
X120227700Y-62202600D03*
X154227700Y-62202600D03*
X86227700Y-96202600D03*
X120227700Y-96202600D03*
X154227700Y-96202600D03*
X86227700Y-130202600D03*
X120227700Y-130202600D03*
X154227700Y-130202600D03*
D13*
X100015200Y-80212600D02*
X100015200Y-77202600D01*
X105015200Y-87302600D02*
X105015200Y-85212600D01*
X105015200Y-85212600D02*
X100015200Y-80212600D01*
X87325200Y-82782600D02*
X91025200Y-82782600D01*
X93595200Y-80212600D02*
X100015200Y-80212600D01*
X91025200Y-82782600D02*
X93595200Y-80212600D01*
X100815200Y-65612600D02*
X100815200Y-62202600D01*
X92115200Y-68502600D02*
X97925200Y-68502600D01*
X97925200Y-68502600D02*
X100815200Y-65612600D01*
X97955200Y-74800602D02*
X97955200Y-68532600D01*
X100015200Y-77202600D02*
X100015200Y-76860602D01*
X97955200Y-68532600D02*
X97925200Y-68502600D01*
X100015200Y-76860602D02*
X97955200Y-74800602D01*
X134015200Y-77202600D02*
X134015200Y-76860602D01*
X168015200Y-77202600D02*
X168015200Y-76860602D01*
X100015200Y-111202600D02*
X100015200Y-110860602D01*
X134015200Y-111202600D02*
X134015200Y-110860602D01*
X168015200Y-111202600D02*
X168015200Y-110860602D01*
X100015200Y-145202600D02*
X100015200Y-144860602D01*
X134015200Y-145202600D02*
X134015200Y-144860602D01*
X168015200Y-145202600D02*
X168015200Y-144860602D01*
X139015200Y-87302600D02*
X139015200Y-85212600D01*
X173015200Y-87302600D02*
X173015200Y-85212600D01*
X105015200Y-121302600D02*
X105015200Y-119212600D01*
X139015200Y-121302600D02*
X139015200Y-119212600D01*
X173015200Y-121302600D02*
X173015200Y-119212600D01*
X105015200Y-155302600D02*
X105015200Y-153212600D01*
X139015200Y-155302600D02*
X139015200Y-153212600D01*
X173015200Y-155302600D02*
X173015200Y-153212600D01*
X131955200Y-68532600D02*
X131925200Y-68502600D01*
X165955200Y-68532600D02*
X165925200Y-68502600D01*
X97955200Y-102532600D02*
X97925200Y-102502600D01*
X131955200Y-102532600D02*
X131925200Y-102502600D01*
X165955200Y-102532600D02*
X165925200Y-102502600D01*
X97955200Y-136532600D02*
X97925200Y-136502600D01*
X131955200Y-136532600D02*
X131925200Y-136502600D01*
X165955200Y-136532600D02*
X165925200Y-136502600D01*
X134815200Y-65612600D02*
X134815200Y-62202600D01*
X168815200Y-65612600D02*
X168815200Y-62202600D01*
X100815200Y-99612600D02*
X100815200Y-96202600D01*
X134815200Y-99612600D02*
X134815200Y-96202600D01*
X168815200Y-99612600D02*
X168815200Y-96202600D01*
X100815200Y-133612600D02*
X100815200Y-130202600D01*
X134815200Y-133612600D02*
X134815200Y-130202600D01*
X168815200Y-133612600D02*
X168815200Y-130202600D01*
X134015200Y-80212600D02*
X134015200Y-77202600D01*
X168015200Y-80212600D02*
X168015200Y-77202600D01*
X100015200Y-114212600D02*
X100015200Y-111202600D01*
X134015200Y-114212600D02*
X134015200Y-111202600D01*
X168015200Y-114212600D02*
X168015200Y-111202600D01*
X100015200Y-148212600D02*
X100015200Y-145202600D01*
X134015200Y-148212600D02*
X134015200Y-145202600D01*
X168015200Y-148212600D02*
X168015200Y-145202600D01*
X126115200Y-68502600D02*
X131925200Y-68502600D01*
X160115200Y-68502600D02*
X165925200Y-68502600D01*
X92115200Y-102502600D02*
X97925200Y-102502600D01*
X126115200Y-102502600D02*
X131925200Y-102502600D01*
X160115200Y-102502600D02*
X165925200Y-102502600D01*
X92115200Y-136502600D02*
X97925200Y-136502600D01*
X126115200Y-136502600D02*
X131925200Y-136502600D01*
X160115200Y-136502600D02*
X165925200Y-136502600D01*
X134015200Y-76860602D02*
X131955200Y-74800602D01*
X168015200Y-76860602D02*
X165955200Y-74800602D01*
X100015200Y-110860602D02*
X97955200Y-108800602D01*
X134015200Y-110860602D02*
X131955200Y-108800602D01*
X168015200Y-110860602D02*
X165955200Y-108800602D01*
X100015200Y-144860602D02*
X97955200Y-142800602D01*
X134015200Y-144860602D02*
X131955200Y-142800602D01*
X168015200Y-144860602D02*
X165955200Y-142800602D01*
X127595200Y-80212600D02*
X134015200Y-80212600D01*
X161595200Y-80212600D02*
X168015200Y-80212600D01*
X93595200Y-114212600D02*
X100015200Y-114212600D01*
X127595200Y-114212600D02*
X134015200Y-114212600D01*
X161595200Y-114212600D02*
X168015200Y-114212600D01*
X93595200Y-148212600D02*
X100015200Y-148212600D01*
X127595200Y-148212600D02*
X134015200Y-148212600D01*
X161595200Y-148212600D02*
X168015200Y-148212600D01*
X139015200Y-85212600D02*
X134015200Y-80212600D01*
X173015200Y-85212600D02*
X168015200Y-80212600D01*
X105015200Y-119212600D02*
X100015200Y-114212600D01*
X139015200Y-119212600D02*
X134015200Y-114212600D01*
X173015200Y-119212600D02*
X168015200Y-114212600D01*
X105015200Y-153212600D02*
X100015200Y-148212600D01*
X139015200Y-153212600D02*
X134015200Y-148212600D01*
X173015200Y-153212600D02*
X168015200Y-148212600D01*
X121325200Y-82782600D02*
X125025200Y-82782600D01*
X155325200Y-82782600D02*
X159025200Y-82782600D01*
X87325200Y-116782600D02*
X91025200Y-116782600D01*
X121325200Y-116782600D02*
X125025200Y-116782600D01*
X155325200Y-116782600D02*
X159025200Y-116782600D01*
X87325200Y-150782600D02*
X91025200Y-150782600D01*
X121325200Y-150782600D02*
X125025200Y-150782600D01*
X155325200Y-150782600D02*
X159025200Y-150782600D01*
X125025200Y-82782600D02*
X127595200Y-80212600D01*
X159025200Y-82782600D02*
X161595200Y-80212600D01*
X91025200Y-116782600D02*
X93595200Y-114212600D01*
X125025200Y-116782600D02*
X127595200Y-114212600D01*
X159025200Y-116782600D02*
X161595200Y-114212600D01*
X91025200Y-150782600D02*
X93595200Y-148212600D01*
X125025200Y-150782600D02*
X127595200Y-148212600D01*
X159025200Y-150782600D02*
X161595200Y-148212600D01*
X131955200Y-74800602D02*
X131955200Y-68532600D01*
X165955200Y-74800602D02*
X165955200Y-68532600D01*
X97955200Y-108800602D02*
X97955200Y-102532600D01*
X131955200Y-108800602D02*
X131955200Y-102532600D01*
X165955200Y-108800602D02*
X165955200Y-102532600D01*
X97955200Y-142800602D02*
X97955200Y-136532600D01*
X131955200Y-142800602D02*
X131955200Y-136532600D01*
X165955200Y-142800602D02*
X165955200Y-136532600D01*
X131925200Y-68502600D02*
X134815200Y-65612600D01*
X165925200Y-68502600D02*
X168815200Y-65612600D01*
X97925200Y-102502600D02*
X100815200Y-99612600D01*
X131925200Y-102502600D02*
X134815200Y-99612600D01*
X165925200Y-102502600D02*
X168815200Y-99612600D01*
X97925200Y-136502600D02*
X100815200Y-133612600D01*
X131925200Y-136502600D02*
X134815200Y-133612600D01*
X165925200Y-136502600D02*
X168815200Y-133612600D01*
X107865199Y-70152601D02*
X107915200Y-70102600D01*
X107515201Y-70502599D02*
X107915200Y-70102600D01*
X105145199Y-70502599D02*
X107515201Y-70502599D01*
X87015200Y-59302600D02*
X88485200Y-60772600D01*
X101505200Y-60772600D02*
X103445200Y-62712600D01*
X88485200Y-60772600D02*
X101505200Y-60772600D01*
X103445200Y-62712600D02*
X103445200Y-68802600D01*
X103445200Y-68802600D02*
X105145199Y-70502599D01*
X135505200Y-60772600D02*
X137445200Y-62712600D01*
X169505200Y-60772600D02*
X171445200Y-62712600D01*
X101505200Y-94772600D02*
X103445200Y-96712600D01*
X135505200Y-94772600D02*
X137445200Y-96712600D01*
X169505200Y-94772600D02*
X171445200Y-96712600D01*
X101505200Y-128772600D02*
X103445200Y-130712600D01*
X135505200Y-128772600D02*
X137445200Y-130712600D01*
X169505200Y-128772600D02*
X171445200Y-130712600D01*
X137445200Y-68802600D02*
X139145199Y-70502599D01*
X171445200Y-68802600D02*
X173145199Y-70502599D01*
X103445200Y-102802600D02*
X105145199Y-104502599D01*
X137445200Y-102802600D02*
X139145199Y-104502599D01*
X171445200Y-102802600D02*
X173145199Y-104502599D01*
X103445200Y-136802600D02*
X105145199Y-138502599D01*
X137445200Y-136802600D02*
X139145199Y-138502599D01*
X171445200Y-136802600D02*
X173145199Y-138502599D01*
X141865199Y-70152601D02*
X141915200Y-70102600D01*
X175865199Y-70152601D02*
X175915200Y-70102600D01*
X107865199Y-104152601D02*
X107915200Y-104102600D01*
X141865199Y-104152601D02*
X141915200Y-104102600D01*
X175865199Y-104152601D02*
X175915200Y-104102600D01*
X107865199Y-138152601D02*
X107915200Y-138102600D01*
X141865199Y-138152601D02*
X141915200Y-138102600D01*
X175865199Y-138152601D02*
X175915200Y-138102600D01*
X121015200Y-59302600D02*
X122485200Y-60772600D01*
X155015200Y-59302600D02*
X156485200Y-60772600D01*
X87015200Y-93302600D02*
X88485200Y-94772600D01*
X121015200Y-93302600D02*
X122485200Y-94772600D01*
X155015200Y-93302600D02*
X156485200Y-94772600D01*
X87015200Y-127302600D02*
X88485200Y-128772600D01*
X121015200Y-127302600D02*
X122485200Y-128772600D01*
X155015200Y-127302600D02*
X156485200Y-128772600D01*
X137445200Y-62712600D02*
X137445200Y-68802600D01*
X171445200Y-62712600D02*
X171445200Y-68802600D01*
X103445200Y-96712600D02*
X103445200Y-102802600D01*
X137445200Y-96712600D02*
X137445200Y-102802600D01*
X171445200Y-96712600D02*
X171445200Y-102802600D01*
X103445200Y-130712600D02*
X103445200Y-136802600D01*
X137445200Y-130712600D02*
X137445200Y-136802600D01*
X171445200Y-130712600D02*
X171445200Y-136802600D01*
X139145199Y-70502599D02*
X141515201Y-70502599D01*
X173145199Y-70502599D02*
X175515201Y-70502599D01*
X105145199Y-104502599D02*
X107515201Y-104502599D01*
X139145199Y-104502599D02*
X141515201Y-104502599D01*
X173145199Y-104502599D02*
X175515201Y-104502599D01*
X105145199Y-138502599D02*
X107515201Y-138502599D01*
X139145199Y-138502599D02*
X141515201Y-138502599D01*
X173145199Y-138502599D02*
X175515201Y-138502599D01*
X141515201Y-70502599D02*
X141915200Y-70102600D01*
X175515201Y-70502599D02*
X175915200Y-70102600D01*
X107515201Y-104502599D02*
X107915200Y-104102600D01*
X141515201Y-104502599D02*
X141915200Y-104102600D01*
X175515201Y-104502599D02*
X175915200Y-104102600D01*
X107515201Y-138502599D02*
X107915200Y-138102600D01*
X141515201Y-138502599D02*
X141915200Y-138102600D01*
X175515201Y-138502599D02*
X175915200Y-138102600D01*
X122485200Y-60772600D02*
X135505200Y-60772600D01*
X156485200Y-60772600D02*
X169505200Y-60772600D01*
X88485200Y-94772600D02*
X101505200Y-94772600D01*
X122485200Y-94772600D02*
X135505200Y-94772600D01*
X156485200Y-94772600D02*
X169505200Y-94772600D01*
X88485200Y-128772600D02*
X101505200Y-128772600D01*
X122485200Y-128772600D02*
X135505200Y-128772600D01*
X156485200Y-128772600D02*
X169505200Y-128772600D01*
X108315199Y-68102601D02*
X107915200Y-68502600D01*
X108315199Y-65302601D02*
X108315199Y-68102601D01*
X110015200Y-64302600D02*
X109315200Y-64302600D01*
X109315200Y-64302600D02*
X108315199Y-65302601D01*
X142315199Y-65302601D02*
X142315199Y-68102601D01*
X176315199Y-65302601D02*
X176315199Y-68102601D01*
X108315199Y-99302601D02*
X108315199Y-102102601D01*
X142315199Y-99302601D02*
X142315199Y-102102601D01*
X176315199Y-99302601D02*
X176315199Y-102102601D01*
X108315199Y-133302601D02*
X108315199Y-136102601D01*
X142315199Y-133302601D02*
X142315199Y-136102601D01*
X176315199Y-133302601D02*
X176315199Y-136102601D01*
X142315199Y-68102601D02*
X141915200Y-68502600D01*
X176315199Y-68102601D02*
X175915200Y-68502600D01*
X108315199Y-102102601D02*
X107915200Y-102502600D01*
X142315199Y-102102601D02*
X141915200Y-102502600D01*
X176315199Y-102102601D02*
X175915200Y-102502600D01*
X108315199Y-136102601D02*
X107915200Y-136502600D01*
X142315199Y-136102601D02*
X141915200Y-136502600D01*
X176315199Y-136102601D02*
X175915200Y-136502600D01*
X144015200Y-64302600D02*
X143315200Y-64302600D01*
X178015200Y-64302600D02*
X177315200Y-64302600D01*
X110015200Y-98302600D02*
X109315200Y-98302600D01*
X144015200Y-98302600D02*
X143315200Y-98302600D01*
X178015200Y-98302600D02*
X177315200Y-98302600D01*
X110015200Y-132302600D02*
X109315200Y-132302600D01*
X144015200Y-132302600D02*
X143315200Y-132302600D01*
X178015200Y-132302600D02*
X177315200Y-132302600D01*
X143315200Y-64302600D02*
X142315199Y-65302601D01*
X177315200Y-64302600D02*
X176315199Y-65302601D01*
X109315200Y-98302600D02*
X108315199Y-99302601D01*
X143315200Y-98302600D02*
X142315199Y-99302601D01*
X177315200Y-98302600D02*
X176315199Y-99302601D01*
X109315200Y-132302600D02*
X108315199Y-133302601D01*
X143315200Y-132302600D02*
X142315199Y-133302601D01*
X177315200Y-132302600D02*
X176315199Y-133302601D01*
X82015200Y-82302600D02*
X83225200Y-82302600D01*
X84815200Y-80712600D02*
X84815200Y-78102600D01*
X83225200Y-82302600D02*
X84815200Y-80712600D01*
X118815200Y-80712600D02*
X118815200Y-78102600D01*
X152815200Y-80712600D02*
X152815200Y-78102600D01*
X84815200Y-114712600D02*
X84815200Y-112102600D01*
X118815200Y-114712600D02*
X118815200Y-112102600D01*
X152815200Y-114712600D02*
X152815200Y-112102600D01*
X84815200Y-148712600D02*
X84815200Y-146102600D01*
X118815200Y-148712600D02*
X118815200Y-146102600D01*
X152815200Y-148712600D02*
X152815200Y-146102600D01*
X117225200Y-82302600D02*
X118815200Y-80712600D01*
X151225200Y-82302600D02*
X152815200Y-80712600D01*
X83225200Y-116302600D02*
X84815200Y-114712600D01*
X117225200Y-116302600D02*
X118815200Y-114712600D01*
X151225200Y-116302600D02*
X152815200Y-114712600D01*
X83225200Y-150302600D02*
X84815200Y-148712600D01*
X117225200Y-150302600D02*
X118815200Y-148712600D01*
X151225200Y-150302600D02*
X152815200Y-148712600D01*
X116015200Y-82302600D02*
X117225200Y-82302600D01*
X150015200Y-82302600D02*
X151225200Y-82302600D01*
X82015200Y-116302600D02*
X83225200Y-116302600D01*
X116015200Y-116302600D02*
X117225200Y-116302600D01*
X150015200Y-116302600D02*
X151225200Y-116302600D01*
X82015200Y-150302600D02*
X83225200Y-150302600D01*
X116015200Y-150302600D02*
X117225200Y-150302600D01*
X150015200Y-150302600D02*
X151225200Y-150302600D01*
X83995200Y-68302600D02*
X85145200Y-67152600D01*
X82015200Y-68302600D02*
X83995200Y-68302600D01*
X85145200Y-63285100D02*
X86227700Y-62202600D01*
X85145200Y-67152600D02*
X85145200Y-63285100D01*
X117995200Y-68302600D02*
X119145200Y-67152600D01*
X151995200Y-68302600D02*
X153145200Y-67152600D01*
X83995200Y-102302600D02*
X85145200Y-101152600D01*
X117995200Y-102302600D02*
X119145200Y-101152600D01*
X151995200Y-102302600D02*
X153145200Y-101152600D01*
X83995200Y-136302600D02*
X85145200Y-135152600D01*
X117995200Y-136302600D02*
X119145200Y-135152600D01*
X151995200Y-136302600D02*
X153145200Y-135152600D01*
X116015200Y-68302600D02*
X117995200Y-68302600D01*
X150015200Y-68302600D02*
X151995200Y-68302600D01*
X82015200Y-102302600D02*
X83995200Y-102302600D01*
X116015200Y-102302600D02*
X117995200Y-102302600D01*
X150015200Y-102302600D02*
X151995200Y-102302600D01*
X82015200Y-136302600D02*
X83995200Y-136302600D01*
X116015200Y-136302600D02*
X117995200Y-136302600D01*
X150015200Y-136302600D02*
X151995200Y-136302600D01*
X119145200Y-67152600D02*
X119145200Y-63285100D01*
X153145200Y-67152600D02*
X153145200Y-63285100D01*
X85145200Y-101152600D02*
X85145200Y-97285100D01*
X119145200Y-101152600D02*
X119145200Y-97285100D01*
X153145200Y-101152600D02*
X153145200Y-97285100D01*
X85145200Y-135152600D02*
X85145200Y-131285100D01*
X119145200Y-135152600D02*
X119145200Y-131285100D01*
X153145200Y-135152600D02*
X153145200Y-131285100D01*
X119145200Y-63285100D02*
X120227700Y-62202600D01*
X153145200Y-63285100D02*
X154227700Y-62202600D01*
X85145200Y-97285100D02*
X86227700Y-96202600D01*
X119145200Y-97285100D02*
X120227700Y-96202600D01*
X153145200Y-97285100D02*
X154227700Y-96202600D01*
X85145200Y-131285100D02*
X86227700Y-130202600D01*
X119145200Y-131285100D02*
X120227700Y-130202600D01*
X153145200Y-131285100D02*
X154227700Y-130202600D01*
M02*
